G04*
G04 #@! TF.GenerationSoftware,Altium Limited,Altium Designer,21.7.2 (23)*
G04*
G04 Layer_Color=16711935*
%FSLAX25Y25*%
%MOIN*%
G70*
G04*
G04 #@! TF.SameCoordinates,DA759B71-393A-44F5-82FF-BB875C5BA99D*
G04*
G04*
G04 #@! TF.FilePolarity,Positive*
G04*
G01*
G75*
%ADD34C,0.00394*%
G36*
X44374Y109731D02*
X43193Y107830D01*
X45555D01*
X44374Y109731D01*
D02*
G37*
D34*
X53429Y127909D02*
X53165Y128894D01*
X52445Y129614D01*
X51461Y129878D01*
X50476Y129614D01*
X49756Y128894D01*
X49492Y127909D01*
X49756Y126925D01*
X50476Y126205D01*
X51461Y125941D01*
X52445Y126205D01*
X53165Y126925D01*
X53429Y127909D01*
X34980Y95606D02*
X41870D01*
X34980Y99347D02*
X41870D01*
X34980Y95606D02*
Y99347D01*
X41870Y95606D02*
Y99347D01*
X30386Y130252D02*
X37276D01*
X30386Y126512D02*
X37276D01*
Y130252D01*
X30386Y126512D02*
Y130252D01*
X102985Y88812D02*
X114796D01*
X102985Y94324D02*
X114796D01*
X102985Y88812D02*
Y94324D01*
X114796Y88812D02*
Y94324D01*
X99244Y87237D02*
Y94127D01*
X95504Y87237D02*
Y94127D01*
X99244D01*
X95504Y87237D02*
X99244D01*
X42799Y111964D02*
X45949D01*
X42799Y105664D02*
Y111964D01*
Y105664D02*
X45949D01*
Y111964D01*
X47917Y115311D02*
Y131453D01*
X78232Y115311D02*
Y131453D01*
X47917D02*
X78232D01*
X47917Y115311D02*
X78232D01*
X148356Y69807D02*
X161152D01*
X148356Y63311D02*
X161152D01*
Y69807D01*
X148356Y63311D02*
Y69807D01*
X87064D02*
X99859D01*
X87064Y63311D02*
X99859D01*
Y69807D01*
X87064Y63311D02*
Y69807D01*
X81748Y75125D02*
Y87920D01*
X75252Y75125D02*
Y87920D01*
Y75125D02*
X81748D01*
X75252Y87920D02*
X81748D01*
X166468Y75125D02*
Y87920D01*
X172964Y75125D02*
Y87920D01*
X166468D02*
X172964D01*
X166468Y75125D02*
X172964D01*
X128080Y69807D02*
X140875D01*
X128080Y63311D02*
X140875D01*
Y69807D01*
X128080Y63311D02*
Y69807D01*
X107803D02*
X120598D01*
X107803Y63311D02*
X120598D01*
Y69807D01*
X107803Y63311D02*
Y69807D01*
X81748Y95402D02*
Y108197D01*
X75252Y95402D02*
Y108197D01*
Y95402D02*
X81748D01*
X75252Y108197D02*
X81748D01*
Y115784D02*
Y128579D01*
X75252Y115784D02*
Y128579D01*
Y115784D02*
X81748D01*
X75252Y128579D02*
X81748D01*
M02*
