G04*
G04 #@! TF.GenerationSoftware,Altium Limited,Altium Designer,21.7.2 (23)*
G04*
G04 Layer_Color=16711935*
%FSLAX25Y25*%
%MOIN*%
G70*
G04*
G04 #@! TF.SameCoordinates,E5E8B68C-8D41-431D-B15D-81AA5E7DC35F*
G04*
G04*
G04 #@! TF.FilePolarity,Positive*
G04*
G01*
G75*
%ADD12C,0.01000*%
D12*
X288752Y41961D02*
X288702Y42956D01*
X288550Y43942D01*
X288301Y44907D01*
X287954Y45842D01*
X287515Y46737D01*
X286988Y47583D01*
X286378Y48372D01*
X285691Y49095D01*
X284934Y49744D01*
X284116Y50314D01*
X283244Y50797D01*
X282328Y51191D01*
X281377Y51489D01*
X280400Y51690D01*
X279408Y51791D01*
X278411D01*
X277419Y51690D01*
X276442Y51489D01*
X275491Y51191D01*
X274575Y50797D01*
X273703Y50314D01*
X272885Y49744D01*
X272128Y49095D01*
X271441Y48372D01*
X270831Y47583D01*
X270304Y46737D01*
X269865Y45842D01*
X269518Y44907D01*
X269268Y43942D01*
X269117Y42956D01*
X269067Y41961D01*
X269117Y40965D01*
X269268Y39979D01*
X269518Y39014D01*
X269865Y38079D01*
X270304Y37184D01*
X270831Y36338D01*
X271441Y35550D01*
X272128Y34827D01*
X272885Y34178D01*
X273703Y33608D01*
X274575Y33124D01*
X275491Y32731D01*
X276442Y32432D01*
X277419Y32232D01*
X278411Y32131D01*
X279408D01*
X280400Y32232D01*
X281377Y32432D01*
X282328Y32731D01*
X283244Y33124D01*
X284116Y33608D01*
X284934Y34178D01*
X285691Y34827D01*
X286378Y35550D01*
X286988Y36338D01*
X287515Y37184D01*
X287954Y38079D01*
X288301Y39014D01*
X288550Y39979D01*
X288702Y40965D01*
X288752Y41961D01*
X27716Y75653D02*
X27666Y76649D01*
X27515Y77635D01*
X27265Y78600D01*
X26919Y79535D01*
X26480Y80430D01*
X25952Y81276D01*
X25342Y82065D01*
X24655Y82787D01*
X23899Y83437D01*
X23080Y84006D01*
X22209Y84490D01*
X21292Y84883D01*
X20341Y85182D01*
X19364Y85383D01*
X18372Y85483D01*
X17376D01*
X16384Y85383D01*
X15407Y85182D01*
X14456Y84883D01*
X13539Y84490D01*
X12668Y84006D01*
X11849Y83437D01*
X11093Y82787D01*
X10406Y82065D01*
X9796Y81276D01*
X9268Y80430D01*
X8829Y79535D01*
X8483Y78600D01*
X8233Y77635D01*
X8082Y76649D01*
X8032Y75653D01*
X8082Y74658D01*
X8233Y73672D01*
X8483Y72707D01*
X8829Y71772D01*
X9268Y70877D01*
X9796Y70031D01*
X10406Y69242D01*
X11093Y68520D01*
X11849Y67870D01*
X12668Y67301D01*
X13539Y66817D01*
X14456Y66424D01*
X15407Y66125D01*
X16384Y65925D01*
X17376Y65824D01*
X18373D01*
X19365Y65925D01*
X20341Y66125D01*
X21292Y66424D01*
X22209Y66817D01*
X23080Y67301D01*
X23899Y67870D01*
X24655Y68520D01*
X25342Y69242D01*
X25952Y70031D01*
X26480Y70877D01*
X26919Y71772D01*
X27265Y72707D01*
X27515Y73672D01*
X27666Y74658D01*
X27716Y75653D01*
M02*
