G04*
G04 #@! TF.GenerationSoftware,Altium Limited,Altium Designer,21.7.2 (23)*
G04*
G04 Layer_Color=8388736*
%FSLAX25Y25*%
%MOIN*%
G70*
G04*
G04 #@! TF.SameCoordinates,DA759B71-393A-44F5-82FF-BB875C5BA99D*
G04*
G04*
G04 #@! TF.FilePolarity,Negative*
G04*
G01*
G75*
%ADD16R,0.05500X0.09000*%
%ADD17R,0.22402X0.24331*%
%ADD18R,0.02362X0.03937*%
%ADD19R,0.03543X0.03937*%
%ADD20R,0.03150X0.03150*%
%ADD21R,0.05118X0.03543*%
%ADD22R,0.11496X0.05000*%
%ADD23R,0.06000X0.06000*%
%ADD24C,0.06000*%
%ADD25C,0.04724*%
%ADD26C,0.07874*%
%ADD27C,0.02520*%
%ADD28C,0.05000*%
D16*
X123874Y92611D02*
D03*
X141874D02*
D03*
D17*
X132874Y117946D02*
D03*
D18*
X105151Y86844D02*
D03*
X112631D02*
D03*
X108891Y96292D02*
D03*
D19*
X97374Y94226D02*
D03*
Y87139D02*
D03*
D20*
X44374Y111964D02*
D03*
Y105664D02*
D03*
D21*
Y128382D02*
D03*
Y118382D02*
D03*
X81776Y128382D02*
D03*
Y118382D02*
D03*
D22*
X39409Y21093D02*
D03*
Y32905D02*
D03*
Y44716D02*
D03*
X257374Y94760D02*
D03*
Y106571D02*
D03*
Y118382D02*
D03*
D23*
X34882Y106571D02*
D03*
D24*
Y118382D02*
D03*
D25*
X159589Y117946D02*
D03*
Y98261D02*
D03*
D26*
X258926Y21093D02*
D03*
X50265D02*
D03*
X258926Y62827D02*
D03*
X50265D02*
D03*
D27*
X38743Y124000D02*
D03*
X40181Y105664D02*
D03*
X86000Y128382D02*
D03*
D28*
X233374Y118382D02*
D03*
M02*
