G04*
G04 #@! TF.GenerationSoftware,Altium Limited,Altium Designer,21.7.2 (23)*
G04*
G04 Layer_Color=32896*
%FSLAX25Y25*%
%MOIN*%
G70*
G04*
G04 #@! TF.SameCoordinates,E5E8B68C-8D41-431D-B15D-81AA5E7DC35F*
G04*
G04*
G04 #@! TF.FilePolarity,Positive*
G04*
G01*
G75*
%ADD12C,0.01000*%
%ADD14C,0.00591*%
G36*
X235648Y20817D02*
X235028D01*
Y21524D01*
X235648D01*
Y20817D01*
D02*
G37*
G36*
X189021Y16480D02*
X188445D01*
Y16939D01*
X188372Y16844D01*
X188299Y16764D01*
X188219Y16691D01*
X188131Y16626D01*
X188051Y16575D01*
X187964Y16531D01*
X187884Y16494D01*
X187803Y16465D01*
X187658Y16429D01*
X187592Y16414D01*
X187541Y16407D01*
X187497D01*
X187461Y16400D01*
X187432D01*
X187315Y16407D01*
X187198Y16421D01*
X187089Y16443D01*
X186987Y16480D01*
X186790Y16560D01*
X186710Y16611D01*
X186630Y16655D01*
X186557Y16706D01*
X186498Y16750D01*
X186448Y16793D01*
X186397Y16830D01*
X186360Y16866D01*
X186338Y16888D01*
X186324Y16903D01*
X186316Y16910D01*
X186236Y17012D01*
X186163Y17121D01*
X186098Y17231D01*
X186047Y17355D01*
X186003Y17471D01*
X185966Y17595D01*
X185908Y17829D01*
X185886Y17938D01*
X185872Y18040D01*
X185864Y18127D01*
X185857Y18208D01*
X185850Y18273D01*
Y18317D01*
Y18353D01*
Y18361D01*
X185857Y18507D01*
X185864Y18645D01*
X185886Y18769D01*
X185908Y18878D01*
X185930Y18973D01*
X185944Y19046D01*
X185952Y19068D01*
X185959Y19090D01*
X185966Y19097D01*
Y19104D01*
X186010Y19228D01*
X186061Y19345D01*
X186112Y19447D01*
X186163Y19534D01*
X186207Y19600D01*
X186243Y19651D01*
X186265Y19688D01*
X186273Y19695D01*
X186345Y19782D01*
X186433Y19862D01*
X186513Y19928D01*
X186593Y19979D01*
X186659Y20023D01*
X186717Y20059D01*
X186754Y20074D01*
X186768Y20081D01*
X186878Y20125D01*
X186994Y20161D01*
X187104Y20183D01*
X187198Y20205D01*
X187278Y20212D01*
X187344Y20220D01*
X187402D01*
X187512Y20212D01*
X187621Y20198D01*
X187723Y20176D01*
X187818Y20139D01*
X187986Y20066D01*
X188131Y19972D01*
X188190Y19928D01*
X188248Y19884D01*
X188292Y19840D01*
X188328Y19804D01*
X188365Y19768D01*
X188387Y19746D01*
X188394Y19731D01*
X188401Y19724D01*
Y21524D01*
X189021D01*
Y16480D01*
D02*
G37*
G36*
X227024Y16480D02*
X226404D01*
Y18477D01*
X226397Y18630D01*
X226389Y18762D01*
X226375Y18878D01*
X226353Y18973D01*
X226331Y19046D01*
X226316Y19104D01*
X226309Y19133D01*
X226302Y19148D01*
X226258Y19236D01*
X226207Y19316D01*
X226149Y19381D01*
X226091Y19440D01*
X226040Y19483D01*
X225996Y19512D01*
X225967Y19534D01*
X225959Y19542D01*
X225865Y19593D01*
X225777Y19629D01*
X225690Y19651D01*
X225617Y19673D01*
X225544Y19680D01*
X225493Y19688D01*
X225449D01*
X225318Y19680D01*
X225201Y19651D01*
X225106Y19622D01*
X225026Y19578D01*
X224961Y19542D01*
X224917Y19505D01*
X224888Y19476D01*
X224880Y19469D01*
X224815Y19381D01*
X224764Y19272D01*
X224727Y19163D01*
X224698Y19053D01*
X224683Y18951D01*
X224676Y18871D01*
Y18842D01*
Y18820D01*
Y18805D01*
Y18798D01*
Y16480D01*
X224057D01*
Y18791D01*
X224064Y18980D01*
X224078Y19148D01*
X224100Y19286D01*
X224122Y19403D01*
X224144Y19498D01*
X224166Y19564D01*
X224181Y19600D01*
X224188Y19615D01*
X224246Y19717D01*
X224312Y19804D01*
X224385Y19877D01*
X224450Y19943D01*
X224516Y19994D01*
X224567Y20030D01*
X224603Y20052D01*
X224618Y20059D01*
X224735Y20110D01*
X224851Y20154D01*
X224968Y20183D01*
X225077Y20198D01*
X225172Y20212D01*
X225252Y20220D01*
X225318D01*
X225434Y20212D01*
X225551Y20198D01*
X225660Y20176D01*
X225763Y20139D01*
X225952Y20059D01*
X226032Y20016D01*
X226105Y19972D01*
X226171Y19921D01*
X226236Y19877D01*
X226287Y19833D01*
X226324Y19797D01*
X226360Y19760D01*
X226382Y19738D01*
X226397Y19724D01*
X226404Y19717D01*
Y21524D01*
X227024D01*
Y16480D01*
D02*
G37*
G36*
X215666Y20212D02*
X215826Y20183D01*
X215972Y20139D01*
X216096Y20096D01*
X216198Y20052D01*
X216271Y20008D01*
X216300Y19994D01*
X216322Y19979D01*
X216329Y19972D01*
X216336D01*
X216460Y19877D01*
X216570Y19760D01*
X216665Y19651D01*
X216745Y19542D01*
X216803Y19440D01*
X216847Y19359D01*
X216861Y19330D01*
X216876Y19308D01*
X216883Y19294D01*
Y19286D01*
X216949Y19119D01*
X216993Y18951D01*
X217029Y18791D01*
X217051Y18645D01*
X217066Y18514D01*
Y18463D01*
X217073Y18412D01*
Y18375D01*
Y18346D01*
Y18331D01*
Y18324D01*
X217066Y18186D01*
X217058Y18047D01*
X217007Y17799D01*
X216978Y17683D01*
X216942Y17581D01*
X216905Y17479D01*
X216869Y17391D01*
X216832Y17304D01*
X216796Y17231D01*
X216759Y17172D01*
X216730Y17114D01*
X216701Y17078D01*
X216679Y17041D01*
X216672Y17027D01*
X216665Y17019D01*
X216584Y16925D01*
X216497Y16844D01*
X216402Y16771D01*
X216307Y16706D01*
X216205Y16655D01*
X216110Y16611D01*
X216016Y16575D01*
X215921Y16545D01*
X215833Y16524D01*
X215753Y16509D01*
X215680Y16495D01*
X215615Y16487D01*
X215564D01*
X215527Y16480D01*
X215491D01*
X215382Y16487D01*
X215272Y16502D01*
X215170Y16524D01*
X215075Y16553D01*
X214908Y16633D01*
X214755Y16720D01*
X214696Y16764D01*
X214638Y16808D01*
X214587Y16852D01*
X214550Y16888D01*
X214521Y16917D01*
X214499Y16939D01*
X214485Y16954D01*
X214477Y16961D01*
Y16852D01*
Y16757D01*
X214485Y16662D01*
Y16582D01*
Y16509D01*
X214492Y16443D01*
Y16385D01*
X214499Y16334D01*
X214507Y16261D01*
X214514Y16203D01*
X214521Y16174D01*
Y16166D01*
X214558Y16057D01*
X214609Y15962D01*
X214660Y15882D01*
X214711Y15809D01*
X214762Y15758D01*
X214806Y15714D01*
X214835Y15692D01*
X214842Y15685D01*
X214937Y15627D01*
X215046Y15583D01*
X215156Y15554D01*
X215258Y15532D01*
X215360Y15518D01*
X215433Y15510D01*
X215505D01*
X215644Y15518D01*
X215775Y15540D01*
X215884Y15569D01*
X215972Y15605D01*
X216045Y15634D01*
X216096Y15663D01*
X216125Y15685D01*
X216140Y15692D01*
X216198Y15744D01*
X216242Y15809D01*
X216278Y15875D01*
X216307Y15940D01*
X216322Y16006D01*
X216336Y16057D01*
X216344Y16086D01*
Y16101D01*
X216949Y16181D01*
Y16072D01*
X216934Y15977D01*
X216920Y15882D01*
X216898Y15795D01*
X216832Y15642D01*
X216759Y15518D01*
X216686Y15423D01*
X216628Y15357D01*
X216577Y15314D01*
X216570Y15306D01*
X216563Y15299D01*
X216402Y15197D01*
X216227Y15124D01*
X216052Y15073D01*
X215884Y15036D01*
X215804Y15022D01*
X215731Y15015D01*
X215673Y15007D01*
X215615D01*
X215571Y15000D01*
X215505D01*
X215309Y15007D01*
X215126Y15036D01*
X214966Y15066D01*
X214835Y15109D01*
X214725Y15146D01*
X214682Y15160D01*
X214645Y15182D01*
X214616Y15190D01*
X214594Y15204D01*
X214587Y15211D01*
X214580D01*
X214448Y15292D01*
X214332Y15386D01*
X214237Y15481D01*
X214157Y15569D01*
X214099Y15649D01*
X214062Y15714D01*
X214033Y15758D01*
X214026Y15766D01*
Y15773D01*
X213996Y15846D01*
X213967Y15926D01*
X213945Y16013D01*
X213924Y16108D01*
X213894Y16312D01*
X213873Y16509D01*
X213865Y16604D01*
X213858Y16691D01*
Y16771D01*
X213851Y16837D01*
Y16895D01*
Y16939D01*
Y16968D01*
Y16976D01*
Y20139D01*
X214419D01*
Y19688D01*
X214499Y19782D01*
X214587Y19862D01*
X214674Y19935D01*
X214762Y19994D01*
X214857Y20045D01*
X214944Y20088D01*
X215032Y20125D01*
X215112Y20154D01*
X215192Y20176D01*
X215265Y20190D01*
X215331Y20205D01*
X215382Y20212D01*
X215425Y20220D01*
X215491D01*
X215666Y20212D01*
D02*
G37*
G36*
X162624Y21422D02*
X162704Y21306D01*
X162799Y21189D01*
X162886Y21087D01*
X162974Y21000D01*
X163039Y20927D01*
X163068Y20905D01*
X163090Y20883D01*
X163098Y20876D01*
X163105Y20868D01*
X163258Y20744D01*
X163411Y20628D01*
X163557Y20526D01*
X163703Y20446D01*
X163827Y20373D01*
X163878Y20344D01*
X163921Y20322D01*
X163958Y20300D01*
X163987Y20292D01*
X164002Y20278D01*
X164009D01*
Y19680D01*
X163900Y19724D01*
X163790Y19775D01*
X163681Y19826D01*
X163579Y19877D01*
X163491Y19921D01*
X163418Y19957D01*
X163375Y19986D01*
X163367Y19994D01*
X163360D01*
X163229Y20074D01*
X163112Y20154D01*
X163010Y20227D01*
X162930Y20292D01*
X162857Y20344D01*
X162813Y20387D01*
X162777Y20416D01*
X162770Y20424D01*
Y16480D01*
X162150D01*
Y21546D01*
X162551D01*
X162624Y21422D01*
D02*
G37*
G36*
X199628Y20212D02*
X199752Y20190D01*
X199861Y20169D01*
X199956Y20139D01*
X200036Y20103D01*
X200094Y20081D01*
X200131Y20059D01*
X200145Y20052D01*
X200248Y19986D01*
X200335Y19914D01*
X200415Y19840D01*
X200481Y19768D01*
X200532Y19709D01*
X200575Y19658D01*
X200597Y19629D01*
X200605Y19615D01*
Y20139D01*
X201159D01*
Y16480D01*
X200539D01*
Y18375D01*
X200532Y18550D01*
X200524Y18703D01*
X200510Y18835D01*
X200488Y18944D01*
X200466Y19024D01*
X200452Y19082D01*
X200444Y19119D01*
X200437Y19133D01*
X200393Y19228D01*
X200342Y19308D01*
X200291Y19381D01*
X200240Y19440D01*
X200189Y19483D01*
X200153Y19512D01*
X200124Y19534D01*
X200116Y19542D01*
X200029Y19585D01*
X199949Y19622D01*
X199861Y19644D01*
X199788Y19666D01*
X199730Y19673D01*
X199679Y19680D01*
X199635D01*
X199511Y19673D01*
X199409Y19651D01*
X199322Y19615D01*
X199256Y19578D01*
X199205Y19534D01*
X199169Y19505D01*
X199147Y19476D01*
X199139Y19469D01*
X199088Y19381D01*
X199052Y19286D01*
X199023Y19184D01*
X199008Y19082D01*
X198994Y18995D01*
X198986Y18915D01*
Y18886D01*
Y18871D01*
Y18856D01*
Y18849D01*
Y16480D01*
X198367D01*
Y18601D01*
X198352Y18798D01*
X198323Y18966D01*
X198286Y19104D01*
X198235Y19221D01*
X198192Y19308D01*
X198148Y19367D01*
X198119Y19403D01*
X198111Y19418D01*
X198009Y19505D01*
X197900Y19571D01*
X197791Y19615D01*
X197689Y19651D01*
X197601Y19666D01*
X197528Y19673D01*
X197499Y19680D01*
X197463D01*
X197382Y19673D01*
X197317Y19666D01*
X197251Y19651D01*
X197200Y19629D01*
X197149Y19607D01*
X197120Y19593D01*
X197098Y19585D01*
X197091Y19578D01*
X197033Y19534D01*
X196989Y19491D01*
X196952Y19447D01*
X196923Y19403D01*
X196901Y19367D01*
X196887Y19338D01*
X196872Y19316D01*
Y19308D01*
X196850Y19243D01*
X196836Y19155D01*
X196828Y19068D01*
X196821Y18980D01*
X196814Y18900D01*
Y18835D01*
Y18791D01*
Y18783D01*
Y18776D01*
Y16480D01*
X196194D01*
Y18988D01*
Y19104D01*
X196209Y19206D01*
X196223Y19308D01*
X196238Y19396D01*
X196260Y19483D01*
X196289Y19556D01*
X196311Y19622D01*
X196340Y19688D01*
X196369Y19738D01*
X196391Y19790D01*
X196442Y19855D01*
X196471Y19899D01*
X196486Y19914D01*
X196602Y20016D01*
X196741Y20088D01*
X196879Y20147D01*
X197011Y20183D01*
X197135Y20205D01*
X197186Y20212D01*
X197237D01*
X197273Y20220D01*
X197324D01*
X197455Y20212D01*
X197572Y20190D01*
X197689Y20161D01*
X197798Y20118D01*
X197900Y20066D01*
X197995Y20016D01*
X198075Y19957D01*
X198155Y19899D01*
X198228Y19833D01*
X198286Y19775D01*
X198337Y19724D01*
X198381Y19673D01*
X198418Y19629D01*
X198440Y19600D01*
X198454Y19578D01*
X198461Y19571D01*
X198505Y19680D01*
X198564Y19775D01*
X198629Y19855D01*
X198687Y19921D01*
X198746Y19979D01*
X198790Y20016D01*
X198819Y20037D01*
X198833Y20045D01*
X198935Y20103D01*
X199045Y20147D01*
X199154Y20176D01*
X199263Y20198D01*
X199351Y20212D01*
X199431Y20220D01*
X199497D01*
X199628Y20212D01*
D02*
G37*
G36*
X221731Y20212D02*
X221884Y20198D01*
X222030Y20176D01*
X222147Y20154D01*
X222249Y20132D01*
X222322Y20110D01*
X222351Y20103D01*
X222373Y20096D01*
X222380Y20088D01*
X222387D01*
X222511Y20037D01*
X222621Y19972D01*
X222715Y19914D01*
X222795Y19855D01*
X222854Y19797D01*
X222898Y19753D01*
X222927Y19724D01*
X222934Y19717D01*
X223000Y19622D01*
X223058Y19520D01*
X223102Y19418D01*
X223138Y19323D01*
X223167Y19228D01*
X223189Y19163D01*
X223196Y19133D01*
Y19112D01*
X223204Y19104D01*
Y19097D01*
X222599Y19017D01*
X222555Y19148D01*
X222511Y19265D01*
X222460Y19359D01*
X222416Y19432D01*
X222373Y19491D01*
X222336Y19527D01*
X222307Y19549D01*
X222300Y19556D01*
X222212Y19607D01*
X222110Y19644D01*
X222001Y19673D01*
X221899Y19688D01*
X221797Y19702D01*
X221724Y19709D01*
X221651D01*
X221483Y19702D01*
X221337Y19680D01*
X221221Y19644D01*
X221119Y19607D01*
X221046Y19564D01*
X220988Y19534D01*
X220951Y19505D01*
X220944Y19498D01*
X220885Y19432D01*
X220842Y19352D01*
X220805Y19265D01*
X220783Y19177D01*
X220769Y19097D01*
X220761Y19024D01*
Y18980D01*
Y18973D01*
Y18966D01*
Y18951D01*
Y18922D01*
Y18871D01*
X220769Y18827D01*
Y18813D01*
Y18805D01*
X220842Y18783D01*
X220922Y18762D01*
X221090Y18718D01*
X221279Y18681D01*
X221454Y18645D01*
X221542Y18630D01*
X221622Y18623D01*
X221695Y18609D01*
X221753Y18601D01*
X221804Y18594D01*
X221840D01*
X221870Y18587D01*
X221877D01*
X222008Y18572D01*
X222117Y18550D01*
X222212Y18536D01*
X222285Y18521D01*
X222343Y18514D01*
X222387Y18499D01*
X222416Y18492D01*
X222424D01*
X222518Y18463D01*
X222599Y18434D01*
X222679Y18397D01*
X222744Y18368D01*
X222803Y18339D01*
X222839Y18310D01*
X222868Y18295D01*
X222876Y18288D01*
X222949Y18237D01*
X223007Y18178D01*
X223065Y18120D01*
X223109Y18062D01*
X223145Y18011D01*
X223175Y17967D01*
X223189Y17938D01*
X223196Y17931D01*
X223233Y17850D01*
X223262Y17763D01*
X223284Y17683D01*
X223298Y17603D01*
X223306Y17537D01*
X223313Y17486D01*
Y17457D01*
Y17442D01*
X223306Y17355D01*
X223298Y17282D01*
X223262Y17129D01*
X223211Y17005D01*
X223153Y16895D01*
X223094Y16808D01*
X223043Y16742D01*
X223007Y16706D01*
X222992Y16691D01*
X222861Y16597D01*
X222715Y16524D01*
X222555Y16473D01*
X222409Y16436D01*
X222278Y16414D01*
X222219Y16407D01*
X222168D01*
X222125Y16400D01*
X222066D01*
X221935Y16407D01*
X221804Y16421D01*
X221687Y16436D01*
X221585Y16458D01*
X221505Y16480D01*
X221440Y16502D01*
X221396Y16509D01*
X221381Y16516D01*
X221257Y16567D01*
X221141Y16633D01*
X221031Y16706D01*
X220922Y16771D01*
X220834Y16837D01*
X220769Y16888D01*
X220725Y16925D01*
X220718Y16939D01*
X220710D01*
X220696Y16844D01*
X220681Y16757D01*
X220667Y16677D01*
X220645Y16611D01*
X220623Y16553D01*
X220608Y16516D01*
X220601Y16487D01*
X220594Y16480D01*
X219945D01*
X219982Y16560D01*
X220018Y16640D01*
X220047Y16713D01*
X220062Y16779D01*
X220084Y16837D01*
X220091Y16881D01*
X220098Y16910D01*
Y16917D01*
X220105Y16968D01*
X220113Y17034D01*
Y17107D01*
X220120Y17187D01*
X220127Y17369D01*
Y17551D01*
X220135Y17727D01*
Y17807D01*
Y17872D01*
Y17931D01*
Y17974D01*
Y18003D01*
Y18011D01*
Y18842D01*
Y18980D01*
X220142Y19104D01*
X220149Y19199D01*
Y19279D01*
X220156Y19338D01*
X220164Y19381D01*
X220171Y19403D01*
Y19410D01*
X220193Y19505D01*
X220222Y19585D01*
X220251Y19651D01*
X220288Y19717D01*
X220317Y19760D01*
X220339Y19797D01*
X220353Y19819D01*
X220361Y19826D01*
X220419Y19884D01*
X220484Y19943D01*
X220557Y19986D01*
X220630Y20030D01*
X220696Y20059D01*
X220747Y20081D01*
X220783Y20096D01*
X220798Y20103D01*
X220915Y20139D01*
X221039Y20169D01*
X221163Y20190D01*
X221286Y20205D01*
X221396Y20212D01*
X221476Y20220D01*
X221556D01*
X221731Y20212D01*
D02*
G37*
G36*
X179792Y20212D02*
X179945Y20198D01*
X180091Y20176D01*
X180207Y20154D01*
X180309Y20132D01*
X180382Y20110D01*
X180411Y20103D01*
X180433Y20096D01*
X180440Y20088D01*
X180448D01*
X180572Y20037D01*
X180681Y19972D01*
X180776Y19914D01*
X180856Y19855D01*
X180914Y19797D01*
X180958Y19753D01*
X180987Y19724D01*
X180995Y19717D01*
X181060Y19622D01*
X181119Y19520D01*
X181162Y19418D01*
X181199Y19323D01*
X181228Y19228D01*
X181250Y19163D01*
X181257Y19133D01*
Y19112D01*
X181264Y19104D01*
Y19097D01*
X180659Y19017D01*
X180615Y19148D01*
X180572Y19265D01*
X180521Y19359D01*
X180477Y19432D01*
X180433Y19491D01*
X180397Y19527D01*
X180368Y19549D01*
X180360Y19556D01*
X180273Y19607D01*
X180171Y19644D01*
X180061Y19673D01*
X179959Y19688D01*
X179857Y19702D01*
X179784Y19709D01*
X179711D01*
X179544Y19702D01*
X179398Y19680D01*
X179281Y19644D01*
X179179Y19607D01*
X179106Y19564D01*
X179048Y19534D01*
X179012Y19505D01*
X179004Y19498D01*
X178946Y19432D01*
X178902Y19352D01*
X178866Y19265D01*
X178844Y19177D01*
X178829Y19097D01*
X178822Y19024D01*
Y18980D01*
Y18973D01*
Y18966D01*
Y18951D01*
Y18922D01*
Y18871D01*
X178829Y18827D01*
Y18813D01*
Y18805D01*
X178902Y18783D01*
X178982Y18762D01*
X179150Y18718D01*
X179340Y18681D01*
X179515Y18645D01*
X179602Y18630D01*
X179682Y18623D01*
X179755Y18609D01*
X179814Y18601D01*
X179865Y18594D01*
X179901D01*
X179930Y18587D01*
X179938D01*
X180069Y18572D01*
X180178Y18550D01*
X180273Y18536D01*
X180346Y18521D01*
X180404Y18514D01*
X180448Y18499D01*
X180477Y18492D01*
X180484D01*
X180579Y18463D01*
X180659Y18434D01*
X180739Y18397D01*
X180805Y18368D01*
X180863Y18339D01*
X180900Y18310D01*
X180929Y18295D01*
X180936Y18288D01*
X181009Y18237D01*
X181068Y18178D01*
X181126Y18120D01*
X181169Y18062D01*
X181206Y18011D01*
X181235Y17967D01*
X181250Y17938D01*
X181257Y17931D01*
X181293Y17850D01*
X181323Y17763D01*
X181344Y17683D01*
X181359Y17603D01*
X181366Y17537D01*
X181374Y17486D01*
Y17457D01*
Y17442D01*
X181366Y17355D01*
X181359Y17282D01*
X181323Y17129D01*
X181272Y17005D01*
X181213Y16895D01*
X181155Y16808D01*
X181104Y16742D01*
X181068Y16706D01*
X181053Y16691D01*
X180922Y16597D01*
X180776Y16524D01*
X180615Y16473D01*
X180470Y16436D01*
X180339Y16414D01*
X180280Y16407D01*
X180229D01*
X180185Y16400D01*
X180127D01*
X179996Y16407D01*
X179865Y16421D01*
X179748Y16436D01*
X179646Y16458D01*
X179566Y16480D01*
X179500Y16502D01*
X179456Y16509D01*
X179442Y16516D01*
X179318Y16567D01*
X179201Y16633D01*
X179092Y16706D01*
X178982Y16771D01*
X178895Y16837D01*
X178829Y16888D01*
X178786Y16925D01*
X178778Y16939D01*
X178771D01*
X178756Y16844D01*
X178742Y16757D01*
X178727Y16677D01*
X178706Y16611D01*
X178684Y16553D01*
X178669Y16516D01*
X178662Y16487D01*
X178655Y16480D01*
X178006D01*
X178042Y16560D01*
X178079Y16640D01*
X178108Y16713D01*
X178122Y16779D01*
X178144Y16837D01*
X178152Y16881D01*
X178159Y16910D01*
Y16917D01*
X178166Y16968D01*
X178173Y17034D01*
Y17107D01*
X178181Y17187D01*
X178188Y17369D01*
Y17551D01*
X178195Y17726D01*
Y17807D01*
Y17872D01*
Y17931D01*
Y17974D01*
Y18003D01*
Y18011D01*
Y18842D01*
Y18980D01*
X178202Y19104D01*
X178210Y19199D01*
Y19279D01*
X178217Y19338D01*
X178224Y19381D01*
X178232Y19403D01*
Y19410D01*
X178253Y19505D01*
X178283Y19585D01*
X178312Y19651D01*
X178348Y19717D01*
X178377Y19760D01*
X178399Y19797D01*
X178414Y19819D01*
X178421Y19826D01*
X178480Y19884D01*
X178545Y19943D01*
X178618Y19986D01*
X178691Y20030D01*
X178756Y20059D01*
X178808Y20081D01*
X178844Y20096D01*
X178859Y20103D01*
X178975Y20139D01*
X179099Y20169D01*
X179223Y20190D01*
X179347Y20205D01*
X179456Y20212D01*
X179537Y20220D01*
X179617D01*
X179792Y20212D01*
D02*
G37*
G36*
X209236Y17996D02*
X207319D01*
Y18616D01*
X209236D01*
Y17996D01*
D02*
G37*
G36*
X191602D02*
X189684D01*
Y18616D01*
X191602D01*
Y17996D01*
D02*
G37*
G36*
X167501Y16480D02*
X166801D01*
X164833Y21524D01*
X165511D01*
X166881Y17858D01*
X166939Y17705D01*
X166990Y17559D01*
X167034Y17420D01*
X167071Y17296D01*
X167107Y17187D01*
X167129Y17107D01*
X167136Y17078D01*
X167144Y17056D01*
X167151Y17041D01*
Y17034D01*
X167238Y17325D01*
X167282Y17464D01*
X167326Y17588D01*
X167362Y17697D01*
X167377Y17741D01*
X167384Y17785D01*
X167399Y17814D01*
X167406Y17836D01*
X167413Y17850D01*
Y17858D01*
X168726Y21524D01*
X169455D01*
X167501Y16480D01*
D02*
G37*
G36*
X206539Y21043D02*
Y20139D01*
X206998D01*
Y19658D01*
X206539D01*
Y17544D01*
Y17442D01*
Y17355D01*
X206531Y17275D01*
X206524Y17194D01*
Y17129D01*
X206517Y17070D01*
X206502Y16976D01*
X206488Y16903D01*
X206480Y16852D01*
X206466Y16823D01*
Y16815D01*
X206437Y16750D01*
X206393Y16699D01*
X206349Y16647D01*
X206313Y16611D01*
X206269Y16575D01*
X206240Y16553D01*
X206218Y16538D01*
X206211Y16531D01*
X206131Y16494D01*
X206050Y16473D01*
X205963Y16451D01*
X205875Y16443D01*
X205802Y16436D01*
X205744Y16429D01*
X205686D01*
X205525Y16436D01*
X205445Y16443D01*
X205372Y16458D01*
X205307Y16465D01*
X205256Y16473D01*
X205226Y16480D01*
X205212D01*
X205292Y17027D01*
X205350Y17019D01*
X205409Y17012D01*
X205460D01*
X205496Y17005D01*
X205569D01*
X205664Y17012D01*
X205730Y17027D01*
X205766Y17041D01*
X205781Y17049D01*
X205832Y17085D01*
X205861Y17121D01*
X205883Y17151D01*
X205890Y17165D01*
X205897Y17202D01*
X205905Y17253D01*
X205912Y17369D01*
X205919Y17420D01*
Y17464D01*
Y17493D01*
Y17508D01*
Y19658D01*
X205292D01*
Y20139D01*
X205919D01*
Y21415D01*
X206539Y21043D01*
D02*
G37*
G36*
X229247Y20212D02*
X229408Y20183D01*
X229561Y20147D01*
X229684Y20110D01*
X229794Y20067D01*
X229838Y20045D01*
X229874Y20030D01*
X229903Y20016D01*
X229925Y20001D01*
X229940Y19994D01*
X229947D01*
X230085Y19906D01*
X230209Y19797D01*
X230311Y19688D01*
X230399Y19578D01*
X230465Y19483D01*
X230508Y19403D01*
X230523Y19374D01*
X230537Y19352D01*
X230545Y19338D01*
Y19330D01*
X230610Y19155D01*
X230654Y18980D01*
X230691Y18805D01*
X230712Y18645D01*
X230720Y18572D01*
X230727Y18507D01*
Y18448D01*
X230734Y18397D01*
Y18353D01*
Y18324D01*
Y18302D01*
Y18295D01*
X230727Y18127D01*
X230712Y17974D01*
X230691Y17821D01*
X230661Y17690D01*
X230632Y17559D01*
X230588Y17449D01*
X230552Y17340D01*
X230508Y17245D01*
X230465Y17165D01*
X230428Y17092D01*
X230384Y17027D01*
X230355Y16976D01*
X230326Y16939D01*
X230304Y16910D01*
X230290Y16895D01*
X230282Y16888D01*
X230195Y16801D01*
X230100Y16728D01*
X230005Y16662D01*
X229903Y16604D01*
X229801Y16560D01*
X229706Y16516D01*
X229509Y16458D01*
X229422Y16443D01*
X229342Y16429D01*
X229269Y16414D01*
X229203Y16407D01*
X229152Y16400D01*
X229079D01*
X228970Y16407D01*
X228861Y16414D01*
X228671Y16458D01*
X228496Y16509D01*
X228350Y16575D01*
X228292Y16611D01*
X228234Y16640D01*
X228183Y16669D01*
X228146Y16699D01*
X228117Y16720D01*
X228095Y16735D01*
X228081Y16742D01*
X228073Y16750D01*
X228000Y16823D01*
X227935Y16895D01*
X227818Y17056D01*
X227724Y17223D01*
X227658Y17377D01*
X227607Y17522D01*
X227592Y17581D01*
X227578Y17639D01*
X227570Y17683D01*
X227563Y17712D01*
X227556Y17734D01*
Y17741D01*
X228168Y17821D01*
X228197Y17661D01*
X228241Y17515D01*
X228299Y17398D01*
X228350Y17304D01*
X228401Y17223D01*
X228445Y17172D01*
X228467Y17136D01*
X228482Y17129D01*
X228576Y17056D01*
X228678Y17005D01*
X228781Y16961D01*
X228875Y16939D01*
X228956Y16925D01*
X229028Y16917D01*
X229072Y16910D01*
X229087D01*
X229167Y16917D01*
X229247Y16925D01*
X229393Y16961D01*
X229517Y17012D01*
X229626Y17078D01*
X229706Y17136D01*
X229772Y17187D01*
X229808Y17223D01*
X229823Y17238D01*
X229874Y17304D01*
X229918Y17384D01*
X229983Y17544D01*
X230034Y17727D01*
X230064Y17901D01*
X230085Y18062D01*
X230093Y18127D01*
Y18193D01*
X230100Y18237D01*
Y18281D01*
Y18302D01*
Y18310D01*
Y18441D01*
X230085Y18565D01*
X230071Y18681D01*
X230056Y18783D01*
X230034Y18878D01*
X230005Y18966D01*
X229983Y19046D01*
X229954Y19119D01*
X229925Y19177D01*
X229903Y19228D01*
X229874Y19272D01*
X229852Y19308D01*
X229838Y19338D01*
X229823Y19359D01*
X229808Y19367D01*
Y19374D01*
X229750Y19432D01*
X229692Y19483D01*
X229568Y19571D01*
X229437Y19629D01*
X229320Y19666D01*
X229211Y19695D01*
X229130Y19702D01*
X229094Y19709D01*
X229050D01*
X228941Y19702D01*
X228839Y19680D01*
X228751Y19651D01*
X228671Y19615D01*
X228613Y19578D01*
X228562Y19549D01*
X228533Y19527D01*
X228525Y19520D01*
X228452Y19447D01*
X228387Y19359D01*
X228328Y19265D01*
X228292Y19177D01*
X228256Y19097D01*
X228234Y19031D01*
X228226Y18988D01*
X228219Y18980D01*
Y18973D01*
X227614Y19068D01*
X227665Y19265D01*
X227738Y19432D01*
X227818Y19578D01*
X227898Y19695D01*
X227979Y19790D01*
X228044Y19855D01*
X228088Y19899D01*
X228095Y19914D01*
X228103D01*
X228256Y20016D01*
X228416Y20088D01*
X228576Y20147D01*
X228730Y20183D01*
X228868Y20205D01*
X228926Y20212D01*
X228970D01*
X229014Y20220D01*
X229072D01*
X229247Y20212D01*
D02*
G37*
G36*
X211554D02*
X211685Y20198D01*
X211809Y20176D01*
X211926Y20139D01*
X212035Y20103D01*
X212137Y20059D01*
X212232Y20016D01*
X212312Y19964D01*
X212393Y19921D01*
X212458Y19870D01*
X212516Y19826D01*
X212560Y19790D01*
X212597Y19753D01*
X212626Y19731D01*
X212641Y19717D01*
X212648Y19709D01*
X212728Y19607D01*
X212801Y19498D01*
X212866Y19389D01*
X212925Y19272D01*
X212968Y19148D01*
X213005Y19031D01*
X213063Y18798D01*
X213085Y18696D01*
X213100Y18594D01*
X213107Y18507D01*
X213114Y18426D01*
X213122Y18361D01*
Y18317D01*
Y18281D01*
Y18273D01*
X213114Y18113D01*
X213100Y17960D01*
X213078Y17814D01*
X213049Y17683D01*
X213012Y17559D01*
X212976Y17442D01*
X212932Y17340D01*
X212888Y17245D01*
X212845Y17165D01*
X212801Y17092D01*
X212764Y17034D01*
X212728Y16983D01*
X212699Y16939D01*
X212677Y16910D01*
X212662Y16895D01*
X212655Y16888D01*
X212560Y16801D01*
X212466Y16728D01*
X212363Y16662D01*
X212254Y16604D01*
X212152Y16560D01*
X212043Y16516D01*
X211839Y16458D01*
X211744Y16443D01*
X211656Y16429D01*
X211576Y16414D01*
X211510Y16407D01*
X211459Y16400D01*
X211379D01*
X211153Y16414D01*
X210949Y16451D01*
X210767Y16494D01*
X210694Y16524D01*
X210621Y16553D01*
X210556Y16582D01*
X210497Y16611D01*
X210454Y16633D01*
X210410Y16655D01*
X210381Y16677D01*
X210359Y16691D01*
X210344Y16706D01*
X210337D01*
X210191Y16837D01*
X210074Y16976D01*
X209972Y17121D01*
X209899Y17260D01*
X209841Y17384D01*
X209819Y17442D01*
X209797Y17486D01*
X209783Y17530D01*
X209775Y17559D01*
X209768Y17573D01*
Y17581D01*
X210410Y17661D01*
X210468Y17522D01*
X210534Y17406D01*
X210599Y17304D01*
X210658Y17223D01*
X210709Y17165D01*
X210752Y17121D01*
X210789Y17092D01*
X210796Y17085D01*
X210891Y17027D01*
X210986Y16983D01*
X211088Y16954D01*
X211175Y16932D01*
X211255Y16917D01*
X211321Y16910D01*
X211379D01*
X211467Y16917D01*
X211547Y16925D01*
X211693Y16961D01*
X211824Y17012D01*
X211941Y17070D01*
X212028Y17121D01*
X212094Y17172D01*
X212137Y17209D01*
X212145Y17223D01*
X212152D01*
X212254Y17355D01*
X212334Y17501D01*
X212393Y17661D01*
X212436Y17807D01*
X212458Y17938D01*
X212473Y17996D01*
X212480Y18047D01*
Y18091D01*
X212487Y18120D01*
Y18142D01*
Y18149D01*
X209754Y18149D01*
X209746Y18222D01*
Y18273D01*
Y18302D01*
Y18310D01*
X209754Y18477D01*
X209768Y18630D01*
X209790Y18776D01*
X209819Y18915D01*
X209856Y19039D01*
X209892Y19155D01*
X209936Y19257D01*
X209980Y19352D01*
X210023Y19440D01*
X210067Y19512D01*
X210104Y19571D01*
X210140Y19622D01*
X210169Y19666D01*
X210191Y19695D01*
X210206Y19709D01*
X210213Y19717D01*
X210300Y19804D01*
X210395Y19884D01*
X210497Y19950D01*
X210599Y20008D01*
X210701Y20059D01*
X210796Y20096D01*
X210898Y20132D01*
X210986Y20154D01*
X211080Y20176D01*
X211161Y20190D01*
X211233Y20205D01*
X211292Y20212D01*
X211343Y20220D01*
X211416D01*
X211554Y20212D01*
D02*
G37*
G36*
X235648Y16480D02*
X235028D01*
Y20139D01*
X235648D01*
Y16480D01*
D02*
G37*
G36*
X217918Y20212D02*
X217991Y20198D01*
X218064Y20176D01*
X218123Y20154D01*
X218166Y20132D01*
X218210Y20110D01*
X218232Y20096D01*
X218239Y20088D01*
X218305Y20030D01*
X218370Y19957D01*
X218436Y19870D01*
X218494Y19790D01*
X218553Y19709D01*
X218589Y19644D01*
X218618Y19593D01*
X218626Y19585D01*
Y20139D01*
X219187D01*
Y16480D01*
X218567D01*
Y18390D01*
X218560Y18536D01*
X218553Y18667D01*
X218538Y18791D01*
X218516Y18900D01*
X218494Y18988D01*
X218480Y19053D01*
X218473Y19097D01*
X218465Y19112D01*
X218436Y19192D01*
X218400Y19257D01*
X218363Y19316D01*
X218327Y19367D01*
X218290Y19403D01*
X218268Y19432D01*
X218247Y19447D01*
X218239Y19454D01*
X218181Y19498D01*
X218115Y19527D01*
X218050Y19549D01*
X217999Y19564D01*
X217948Y19571D01*
X217911Y19578D01*
X217875D01*
X217794Y19571D01*
X217714Y19556D01*
X217634Y19534D01*
X217568Y19512D01*
X217510Y19491D01*
X217466Y19469D01*
X217437Y19454D01*
X217430Y19447D01*
X217204Y20016D01*
X217328Y20081D01*
X217445Y20132D01*
X217547Y20169D01*
X217641Y20198D01*
X217722Y20212D01*
X217787Y20220D01*
X217838D01*
X217918Y20212D01*
D02*
G37*
G36*
X175979Y20212D02*
X176052Y20198D01*
X176125Y20176D01*
X176183Y20154D01*
X176227Y20132D01*
X176271Y20110D01*
X176293Y20096D01*
X176300Y20088D01*
X176365Y20030D01*
X176431Y19957D01*
X176497Y19870D01*
X176555Y19790D01*
X176613Y19709D01*
X176650Y19644D01*
X176679Y19593D01*
X176686Y19585D01*
Y20139D01*
X177248D01*
Y16480D01*
X176628D01*
Y18390D01*
X176621Y18536D01*
X176613Y18667D01*
X176599Y18791D01*
X176577Y18900D01*
X176555Y18988D01*
X176540Y19053D01*
X176533Y19097D01*
X176526Y19112D01*
X176497Y19192D01*
X176460Y19257D01*
X176424Y19316D01*
X176387Y19367D01*
X176351Y19403D01*
X176329Y19432D01*
X176307Y19447D01*
X176300Y19454D01*
X176242Y19498D01*
X176176Y19527D01*
X176110Y19549D01*
X176059Y19564D01*
X176008Y19571D01*
X175972Y19578D01*
X175935D01*
X175855Y19571D01*
X175775Y19556D01*
X175695Y19534D01*
X175629Y19512D01*
X175571Y19491D01*
X175527Y19469D01*
X175498Y19454D01*
X175491Y19447D01*
X175265Y20016D01*
X175389Y20081D01*
X175505Y20132D01*
X175607Y20169D01*
X175702Y20198D01*
X175782Y20212D01*
X175848Y20220D01*
X175899D01*
X175979Y20212D01*
D02*
G37*
G36*
X160211Y16480D02*
X159504D01*
Y17187D01*
X160211D01*
Y16480D01*
D02*
G37*
G36*
X237251Y19717D02*
X237317Y19797D01*
X237390Y19862D01*
X237456Y19928D01*
X237528Y19979D01*
X237587Y20016D01*
X237631Y20052D01*
X237660Y20067D01*
X237674Y20074D01*
X237769Y20125D01*
X237871Y20161D01*
X237973Y20183D01*
X238068Y20205D01*
X238148Y20212D01*
X238207Y20220D01*
X238265D01*
X238425Y20212D01*
X238578Y20183D01*
X238717Y20147D01*
X238833Y20103D01*
X238935Y20052D01*
X239008Y20016D01*
X239038Y20001D01*
X239059Y19986D01*
X239067Y19979D01*
X239074D01*
X239205Y19884D01*
X239315Y19768D01*
X239409Y19658D01*
X239482Y19549D01*
X239541Y19447D01*
X239584Y19367D01*
X239599Y19338D01*
X239614Y19316D01*
X239621Y19301D01*
Y19294D01*
X239679Y19126D01*
X239723Y18951D01*
X239759Y18783D01*
X239781Y18630D01*
X239796Y18499D01*
Y18441D01*
X239803Y18397D01*
Y18353D01*
Y18324D01*
Y18310D01*
Y18302D01*
X239796Y18098D01*
X239774Y17909D01*
X239737Y17741D01*
X239701Y17595D01*
X239686Y17530D01*
X239672Y17479D01*
X239650Y17428D01*
X239635Y17384D01*
X239621Y17355D01*
X239614Y17333D01*
X239606Y17318D01*
Y17311D01*
X239526Y17158D01*
X239431Y17027D01*
X239336Y16910D01*
X239242Y16815D01*
X239161Y16742D01*
X239096Y16684D01*
X239052Y16655D01*
X239045Y16640D01*
X239038D01*
X238899Y16560D01*
X238760Y16502D01*
X238622Y16458D01*
X238498Y16429D01*
X238396Y16414D01*
X238309Y16407D01*
X238279Y16400D01*
X238236D01*
X238112Y16407D01*
X237995Y16421D01*
X237886Y16451D01*
X237791Y16487D01*
X237696Y16524D01*
X237609Y16567D01*
X237536Y16618D01*
X237470Y16669D01*
X237405Y16720D01*
X237354Y16771D01*
X237310Y16815D01*
X237273Y16852D01*
X237244Y16888D01*
X237222Y16917D01*
X237215Y16932D01*
X237208Y16939D01*
Y16480D01*
X236632D01*
Y21524D01*
X237251D01*
Y19717D01*
D02*
G37*
G36*
X233089Y20205D02*
X233176Y20198D01*
X233257Y20183D01*
X233322Y20169D01*
X233373Y20154D01*
X233402Y20147D01*
X233417Y20139D01*
X233504Y20110D01*
X233585Y20081D01*
X233650Y20052D01*
X233709Y20023D01*
X233752Y20001D01*
X233782Y19979D01*
X233803Y19972D01*
X233811Y19964D01*
X233884Y19914D01*
X233942Y19855D01*
X233993Y19790D01*
X234037Y19738D01*
X234073Y19688D01*
X234095Y19651D01*
X234109Y19622D01*
X234117Y19615D01*
X234153Y19534D01*
X234182Y19462D01*
X234197Y19381D01*
X234212Y19316D01*
X234219Y19250D01*
X234226Y19206D01*
Y19177D01*
Y19163D01*
X234219Y19060D01*
X234204Y18973D01*
X234182Y18886D01*
X234160Y18813D01*
X234139Y18754D01*
X234117Y18703D01*
X234102Y18674D01*
X234095Y18667D01*
X234037Y18587D01*
X233971Y18521D01*
X233905Y18463D01*
X233840Y18412D01*
X233782Y18375D01*
X233738Y18346D01*
X233709Y18331D01*
X233694Y18324D01*
X233643Y18302D01*
X233577Y18273D01*
X233432Y18222D01*
X233278Y18178D01*
X233118Y18127D01*
X232980Y18091D01*
X232914Y18069D01*
X232856Y18055D01*
X232812Y18040D01*
X232775Y18033D01*
X232754Y18025D01*
X232746D01*
X232651Y18003D01*
X232571Y17982D01*
X232498Y17960D01*
X232433Y17938D01*
X232375Y17923D01*
X232324Y17901D01*
X232236Y17872D01*
X232178Y17850D01*
X232141Y17829D01*
X232119Y17821D01*
X232112Y17814D01*
X232046Y17770D01*
X232003Y17712D01*
X231966Y17661D01*
X231944Y17610D01*
X231930Y17559D01*
X231923Y17522D01*
Y17493D01*
Y17486D01*
X231930Y17398D01*
X231952Y17325D01*
X231988Y17253D01*
X232025Y17194D01*
X232068Y17143D01*
X232098Y17107D01*
X232127Y17085D01*
X232134Y17078D01*
X232221Y17019D01*
X232316Y16983D01*
X232425Y16954D01*
X232528Y16932D01*
X232622Y16917D01*
X232695Y16910D01*
X232768D01*
X232921Y16917D01*
X233052Y16939D01*
X233162Y16968D01*
X233257Y17005D01*
X233330Y17041D01*
X233388Y17070D01*
X233417Y17092D01*
X233432Y17099D01*
X233512Y17180D01*
X233577Y17275D01*
X233621Y17369D01*
X233658Y17457D01*
X233687Y17537D01*
X233701Y17610D01*
X233716Y17654D01*
Y17661D01*
Y17668D01*
X234328Y17573D01*
X234277Y17369D01*
X234212Y17187D01*
X234131Y17041D01*
X234051Y16917D01*
X233978Y16815D01*
X233913Y16750D01*
X233869Y16706D01*
X233862Y16699D01*
X233854Y16691D01*
X233782Y16640D01*
X233701Y16597D01*
X233526Y16524D01*
X233344Y16473D01*
X233169Y16436D01*
X233089Y16421D01*
X233016Y16414D01*
X232943Y16407D01*
X232885D01*
X232834Y16400D01*
X232768D01*
X232608Y16407D01*
X232469Y16421D01*
X232338Y16443D01*
X232221Y16473D01*
X232127Y16502D01*
X232054Y16524D01*
X232010Y16538D01*
X232003Y16545D01*
X231995D01*
X231872Y16611D01*
X231769Y16677D01*
X231682Y16750D01*
X231602Y16815D01*
X231543Y16873D01*
X231507Y16925D01*
X231478Y16954D01*
X231470Y16968D01*
X231412Y17070D01*
X231368Y17180D01*
X231332Y17275D01*
X231310Y17362D01*
X231296Y17442D01*
X231288Y17501D01*
Y17537D01*
Y17551D01*
X231296Y17668D01*
X231310Y17770D01*
X231339Y17858D01*
X231361Y17938D01*
X231390Y18003D01*
X231419Y18047D01*
X231434Y18076D01*
X231441Y18084D01*
X231500Y18157D01*
X231565Y18222D01*
X231631Y18281D01*
X231697Y18324D01*
X231762Y18361D01*
X231806Y18383D01*
X231835Y18397D01*
X231850Y18404D01*
X231901Y18426D01*
X231959Y18448D01*
X232098Y18499D01*
X232251Y18550D01*
X232404Y18594D01*
X232542Y18638D01*
X232608Y18652D01*
X232659Y18667D01*
X232702Y18681D01*
X232739Y18689D01*
X232761Y18696D01*
X232768D01*
X232848Y18718D01*
X232921Y18740D01*
X232987Y18754D01*
X233045Y18776D01*
X233140Y18798D01*
X233213Y18820D01*
X233264Y18842D01*
X233293Y18849D01*
X233308Y18856D01*
X233315D01*
X233373Y18886D01*
X233424Y18907D01*
X233468Y18937D01*
X233497Y18959D01*
X233526Y18980D01*
X233541Y19002D01*
X233548Y19010D01*
X233556Y19017D01*
X233599Y19090D01*
X233621Y19163D01*
Y19192D01*
X233628Y19214D01*
Y19228D01*
Y19236D01*
X233621Y19301D01*
X233599Y19367D01*
X233570Y19425D01*
X233534Y19469D01*
X233504Y19512D01*
X233475Y19542D01*
X233453Y19556D01*
X233446Y19564D01*
X233366Y19615D01*
X233271Y19651D01*
X233169Y19673D01*
X233074Y19695D01*
X232980Y19702D01*
X232907Y19709D01*
X232834D01*
X232710Y19702D01*
X232593Y19688D01*
X232498Y19658D01*
X232425Y19629D01*
X232360Y19600D01*
X232316Y19571D01*
X232287Y19556D01*
X232280Y19549D01*
X232207Y19483D01*
X232156Y19410D01*
X232112Y19338D01*
X232076Y19272D01*
X232054Y19206D01*
X232039Y19155D01*
X232032Y19126D01*
Y19112D01*
X231427Y19192D01*
X231456Y19316D01*
X231485Y19425D01*
X231522Y19520D01*
X231558Y19607D01*
X231594Y19666D01*
X231624Y19717D01*
X231638Y19746D01*
X231645Y19753D01*
X231711Y19826D01*
X231784Y19892D01*
X231864Y19950D01*
X231944Y20001D01*
X232017Y20037D01*
X232076Y20067D01*
X232112Y20081D01*
X232119Y20088D01*
X232127D01*
X232251Y20132D01*
X232382Y20161D01*
X232506Y20190D01*
X232622Y20205D01*
X232732Y20212D01*
X232812Y20220D01*
X232987D01*
X233089Y20205D01*
D02*
G37*
G36*
X203688Y20205D02*
X203776Y20198D01*
X203856Y20183D01*
X203922Y20169D01*
X203973Y20154D01*
X204002Y20147D01*
X204016Y20139D01*
X204104Y20110D01*
X204184Y20081D01*
X204250Y20052D01*
X204308Y20023D01*
X204352Y20001D01*
X204381Y19979D01*
X204403Y19972D01*
X204410Y19964D01*
X204483Y19914D01*
X204541Y19855D01*
X204592Y19790D01*
X204636Y19738D01*
X204673Y19688D01*
X204694Y19651D01*
X204709Y19622D01*
X204716Y19615D01*
X204753Y19534D01*
X204782Y19462D01*
X204796Y19381D01*
X204811Y19316D01*
X204818Y19250D01*
X204826Y19206D01*
Y19177D01*
Y19163D01*
X204818Y19060D01*
X204804Y18973D01*
X204782Y18886D01*
X204760Y18813D01*
X204738Y18754D01*
X204716Y18703D01*
X204702Y18674D01*
X204694Y18667D01*
X204636Y18587D01*
X204570Y18521D01*
X204505Y18463D01*
X204439Y18412D01*
X204381Y18375D01*
X204337Y18346D01*
X204308Y18331D01*
X204293Y18324D01*
X204242Y18302D01*
X204177Y18273D01*
X204031Y18222D01*
X203878Y18178D01*
X203717Y18127D01*
X203579Y18091D01*
X203513Y18069D01*
X203455Y18055D01*
X203411Y18040D01*
X203375Y18033D01*
X203353Y18025D01*
X203346D01*
X203251Y18003D01*
X203171Y17982D01*
X203098Y17960D01*
X203032Y17938D01*
X202974Y17923D01*
X202923Y17901D01*
X202835Y17872D01*
X202777Y17850D01*
X202741Y17829D01*
X202719Y17821D01*
X202712Y17814D01*
X202646Y17770D01*
X202602Y17712D01*
X202566Y17661D01*
X202544Y17610D01*
X202529Y17559D01*
X202522Y17522D01*
Y17493D01*
Y17486D01*
X202529Y17398D01*
X202551Y17325D01*
X202588Y17253D01*
X202624Y17194D01*
X202668Y17143D01*
X202697Y17107D01*
X202726Y17085D01*
X202733Y17078D01*
X202821Y17019D01*
X202916Y16983D01*
X203025Y16954D01*
X203127Y16932D01*
X203222Y16917D01*
X203295Y16910D01*
X203368D01*
X203521Y16917D01*
X203652Y16939D01*
X203761Y16968D01*
X203856Y17005D01*
X203929Y17041D01*
X203987Y17070D01*
X204016Y17092D01*
X204031Y17099D01*
X204111Y17180D01*
X204177Y17275D01*
X204221Y17369D01*
X204257Y17457D01*
X204286Y17537D01*
X204301Y17610D01*
X204315Y17654D01*
Y17661D01*
Y17668D01*
X204928Y17573D01*
X204877Y17369D01*
X204811Y17187D01*
X204731Y17041D01*
X204651Y16917D01*
X204578Y16815D01*
X204512Y16750D01*
X204468Y16706D01*
X204461Y16699D01*
X204454Y16691D01*
X204381Y16640D01*
X204301Y16597D01*
X204126Y16524D01*
X203943Y16473D01*
X203768Y16436D01*
X203688Y16421D01*
X203615Y16414D01*
X203542Y16407D01*
X203484D01*
X203433Y16400D01*
X203368D01*
X203207Y16407D01*
X203069Y16421D01*
X202938Y16443D01*
X202821Y16473D01*
X202726Y16502D01*
X202653Y16524D01*
X202609Y16538D01*
X202602Y16545D01*
X202595D01*
X202471Y16611D01*
X202369Y16677D01*
X202281Y16750D01*
X202201Y16815D01*
X202143Y16873D01*
X202106Y16925D01*
X202077Y16954D01*
X202070Y16968D01*
X202012Y17070D01*
X201968Y17180D01*
X201931Y17275D01*
X201910Y17362D01*
X201895Y17442D01*
X201888Y17501D01*
Y17537D01*
Y17551D01*
X201895Y17668D01*
X201910Y17770D01*
X201939Y17858D01*
X201961Y17938D01*
X201990Y18003D01*
X202019Y18047D01*
X202033Y18076D01*
X202041Y18084D01*
X202099Y18157D01*
X202165Y18222D01*
X202230Y18281D01*
X202296Y18324D01*
X202362Y18361D01*
X202405Y18383D01*
X202434Y18397D01*
X202449Y18404D01*
X202500Y18426D01*
X202558Y18448D01*
X202697Y18499D01*
X202850Y18550D01*
X203003Y18594D01*
X203142Y18638D01*
X203207Y18652D01*
X203258Y18667D01*
X203302Y18681D01*
X203338Y18689D01*
X203360Y18696D01*
X203368D01*
X203448Y18718D01*
X203521Y18740D01*
X203586Y18754D01*
X203645Y18776D01*
X203739Y18798D01*
X203812Y18820D01*
X203863Y18842D01*
X203892Y18849D01*
X203907Y18856D01*
X203914D01*
X203973Y18886D01*
X204024Y18907D01*
X204067Y18937D01*
X204097Y18959D01*
X204126Y18980D01*
X204140Y19002D01*
X204148Y19010D01*
X204155Y19017D01*
X204199Y19090D01*
X204221Y19163D01*
Y19192D01*
X204228Y19214D01*
Y19228D01*
Y19236D01*
X204221Y19301D01*
X204199Y19367D01*
X204170Y19425D01*
X204133Y19469D01*
X204104Y19512D01*
X204075Y19542D01*
X204053Y19556D01*
X204046Y19564D01*
X203965Y19615D01*
X203871Y19651D01*
X203768Y19673D01*
X203674Y19695D01*
X203579Y19702D01*
X203506Y19709D01*
X203433D01*
X203309Y19702D01*
X203193Y19688D01*
X203098Y19658D01*
X203025Y19629D01*
X202959Y19600D01*
X202916Y19571D01*
X202886Y19556D01*
X202879Y19549D01*
X202806Y19483D01*
X202755Y19410D01*
X202712Y19338D01*
X202675Y19272D01*
X202653Y19206D01*
X202639Y19155D01*
X202631Y19126D01*
Y19112D01*
X202026Y19192D01*
X202055Y19316D01*
X202084Y19425D01*
X202121Y19520D01*
X202157Y19607D01*
X202194Y19666D01*
X202223Y19717D01*
X202238Y19746D01*
X202245Y19753D01*
X202310Y19826D01*
X202383Y19892D01*
X202464Y19950D01*
X202544Y20001D01*
X202617Y20037D01*
X202675Y20066D01*
X202712Y20081D01*
X202719Y20088D01*
X202726D01*
X202850Y20132D01*
X202981Y20161D01*
X203105Y20190D01*
X203222Y20205D01*
X203331Y20212D01*
X203411Y20220D01*
X203586D01*
X203688Y20205D01*
D02*
G37*
G36*
X183728Y20212D02*
X183845Y20205D01*
X184071Y20154D01*
X184268Y20088D01*
X184355Y20052D01*
X184435Y20016D01*
X184508Y19979D01*
X184567Y19943D01*
X184625Y19906D01*
X184669Y19877D01*
X184705Y19848D01*
X184734Y19826D01*
X184749Y19819D01*
X184756Y19811D01*
X184858Y19717D01*
X184939Y19607D01*
X185019Y19491D01*
X185077Y19374D01*
X185135Y19250D01*
X185179Y19119D01*
X185215Y18995D01*
X185245Y18878D01*
X185274Y18762D01*
X185288Y18660D01*
X185303Y18557D01*
X185310Y18477D01*
Y18404D01*
X185318Y18353D01*
Y18324D01*
Y18310D01*
X185310Y18142D01*
X185296Y17982D01*
X185274Y17836D01*
X185245Y17697D01*
X185208Y17573D01*
X185172Y17457D01*
X185128Y17347D01*
X185084Y17253D01*
X185040Y17165D01*
X184997Y17092D01*
X184960Y17034D01*
X184924Y16983D01*
X184895Y16939D01*
X184873Y16910D01*
X184858Y16895D01*
X184851Y16888D01*
X184756Y16801D01*
X184661Y16728D01*
X184559Y16662D01*
X184457Y16604D01*
X184355Y16560D01*
X184246Y16516D01*
X184049Y16458D01*
X183962Y16443D01*
X183874Y16429D01*
X183801Y16414D01*
X183736Y16407D01*
X183677Y16400D01*
X183604D01*
X183429Y16407D01*
X183269Y16436D01*
X183116Y16473D01*
X182992Y16509D01*
X182883Y16553D01*
X182839Y16567D01*
X182802Y16582D01*
X182766Y16597D01*
X182744Y16611D01*
X182737Y16618D01*
X182730D01*
X182584Y16713D01*
X182460Y16815D01*
X182351Y16917D01*
X182263Y17019D01*
X182197Y17107D01*
X182146Y17180D01*
X182132Y17209D01*
X182117Y17231D01*
X182110Y17238D01*
Y17245D01*
X182037Y17413D01*
X181986Y17595D01*
X181942Y17777D01*
X181920Y17960D01*
X181906Y18040D01*
Y18113D01*
X181898Y18186D01*
X181891Y18244D01*
Y18295D01*
Y18331D01*
Y18353D01*
Y18361D01*
X181898Y18521D01*
X181913Y18667D01*
X181935Y18805D01*
X181964Y18937D01*
X182001Y19060D01*
X182044Y19170D01*
X182088Y19279D01*
X182132Y19367D01*
X182176Y19447D01*
X182219Y19520D01*
X182263Y19585D01*
X182299Y19636D01*
X182329Y19673D01*
X182351Y19702D01*
X182365Y19717D01*
X182372Y19724D01*
X182467Y19811D01*
X182562Y19884D01*
X182664Y19957D01*
X182766Y20008D01*
X182868Y20059D01*
X182970Y20096D01*
X183167Y20161D01*
X183262Y20176D01*
X183342Y20190D01*
X183415Y20205D01*
X183481Y20212D01*
X183531Y20220D01*
X183604D01*
X183728Y20212D01*
D02*
G37*
G36*
X172575Y19717D02*
X172640Y19797D01*
X172713Y19862D01*
X172779Y19928D01*
X172852Y19979D01*
X172910Y20016D01*
X172954Y20052D01*
X172983Y20066D01*
X172997Y20074D01*
X173092Y20125D01*
X173194Y20161D01*
X173296Y20183D01*
X173391Y20205D01*
X173471Y20212D01*
X173530Y20220D01*
X173588D01*
X173748Y20212D01*
X173901Y20183D01*
X174040Y20147D01*
X174156Y20103D01*
X174259Y20052D01*
X174331Y20016D01*
X174361Y20001D01*
X174382Y19986D01*
X174390Y19979D01*
X174397D01*
X174528Y19884D01*
X174638Y19768D01*
X174732Y19658D01*
X174805Y19549D01*
X174864Y19447D01*
X174907Y19367D01*
X174922Y19338D01*
X174937Y19316D01*
X174944Y19301D01*
Y19294D01*
X175002Y19126D01*
X175046Y18951D01*
X175082Y18783D01*
X175104Y18630D01*
X175119Y18499D01*
Y18441D01*
X175126Y18397D01*
Y18353D01*
Y18324D01*
Y18310D01*
Y18302D01*
X175119Y18098D01*
X175097Y17909D01*
X175060Y17741D01*
X175024Y17595D01*
X175010Y17530D01*
X174995Y17479D01*
X174973Y17428D01*
X174958Y17384D01*
X174944Y17355D01*
X174937Y17333D01*
X174929Y17318D01*
Y17311D01*
X174849Y17158D01*
X174754Y17027D01*
X174660Y16910D01*
X174565Y16815D01*
X174485Y16742D01*
X174419Y16684D01*
X174375Y16655D01*
X174368Y16640D01*
X174361D01*
X174222Y16560D01*
X174084Y16502D01*
X173945Y16458D01*
X173821Y16429D01*
X173719Y16414D01*
X173632Y16407D01*
X173602Y16400D01*
X173559D01*
X173435Y16407D01*
X173318Y16421D01*
X173209Y16451D01*
X173114Y16487D01*
X173019Y16524D01*
X172932Y16567D01*
X172859Y16618D01*
X172793Y16669D01*
X172728Y16720D01*
X172677Y16771D01*
X172633Y16815D01*
X172597Y16852D01*
X172567Y16888D01*
X172546Y16917D01*
X172538Y16932D01*
X172531Y16939D01*
Y16480D01*
X171955D01*
Y21524D01*
X172575D01*
Y19717D01*
D02*
G37*
G36*
X157149Y21532D02*
X157331Y21503D01*
X157484Y21452D01*
X157615Y21401D01*
X157725Y21342D01*
X157769Y21320D01*
X157805Y21291D01*
X157834Y21277D01*
X157856Y21262D01*
X157863Y21248D01*
X157871D01*
X158002Y21131D01*
X158111Y20992D01*
X158206Y20854D01*
X158279Y20723D01*
X158337Y20599D01*
X158366Y20548D01*
X158381Y20497D01*
X158396Y20460D01*
X158410Y20431D01*
X158417Y20416D01*
Y20409D01*
X158447Y20300D01*
X158476Y20190D01*
X158519Y19950D01*
X158556Y19709D01*
X158578Y19483D01*
X158585Y19374D01*
X158592Y19279D01*
Y19192D01*
X158600Y19112D01*
Y19053D01*
Y19002D01*
Y18973D01*
Y18966D01*
X158592Y18711D01*
X158578Y18470D01*
X158556Y18251D01*
X158519Y18047D01*
X158483Y17858D01*
X158439Y17690D01*
X158396Y17537D01*
X158352Y17406D01*
X158308Y17289D01*
X158257Y17187D01*
X158221Y17099D01*
X158184Y17034D01*
X158148Y16976D01*
X158126Y16939D01*
X158111Y16917D01*
X158104Y16910D01*
X158024Y16823D01*
X157936Y16742D01*
X157842Y16669D01*
X157747Y16611D01*
X157652Y16560D01*
X157557Y16516D01*
X157462Y16487D01*
X157375Y16458D01*
X157288Y16436D01*
X157207Y16421D01*
X157134Y16407D01*
X157076Y16400D01*
X157025Y16392D01*
X156952D01*
X156755Y16407D01*
X156573Y16436D01*
X156420Y16487D01*
X156289Y16538D01*
X156179Y16589D01*
X156143Y16618D01*
X156106Y16640D01*
X156077Y16655D01*
X156055Y16669D01*
X156048Y16684D01*
X156041D01*
X155910Y16808D01*
X155800Y16939D01*
X155706Y17085D01*
X155633Y17216D01*
X155574Y17340D01*
X155545Y17391D01*
X155531Y17442D01*
X155516Y17479D01*
X155501Y17508D01*
X155494Y17522D01*
Y17530D01*
X155458Y17639D01*
X155429Y17748D01*
X155385Y17982D01*
X155348Y18222D01*
X155326Y18455D01*
X155319Y18557D01*
X155312Y18652D01*
Y18740D01*
X155305Y18820D01*
Y18878D01*
Y18929D01*
Y18959D01*
Y18966D01*
Y19104D01*
X155312Y19236D01*
Y19352D01*
X155319Y19469D01*
X155334Y19571D01*
X155341Y19673D01*
X155348Y19760D01*
X155363Y19840D01*
X155370Y19914D01*
X155385Y19979D01*
X155392Y20030D01*
X155399Y20074D01*
X155407Y20110D01*
X155414Y20132D01*
X155421Y20147D01*
Y20154D01*
X155465Y20314D01*
X155516Y20460D01*
X155574Y20584D01*
X155618Y20694D01*
X155669Y20788D01*
X155698Y20854D01*
X155727Y20890D01*
X155735Y20905D01*
X155815Y21014D01*
X155895Y21109D01*
X155983Y21189D01*
X156063Y21262D01*
X156136Y21313D01*
X156194Y21350D01*
X156230Y21371D01*
X156238Y21379D01*
X156245D01*
X156362Y21437D01*
X156486Y21474D01*
X156602Y21503D01*
X156712Y21524D01*
X156806Y21539D01*
X156886Y21546D01*
X156952D01*
X157149Y21532D01*
D02*
G37*
G36*
X193789Y20212D02*
X193905Y20198D01*
X194007Y20176D01*
X194095Y20147D01*
X194168Y20118D01*
X194226Y20096D01*
X194255Y20081D01*
X194270Y20074D01*
X194357Y20016D01*
X194445Y19950D01*
X194518Y19884D01*
X194583Y19811D01*
X194641Y19753D01*
X194678Y19702D01*
X194707Y19673D01*
X194714Y19658D01*
Y20139D01*
X195276D01*
Y15080D01*
X194656D01*
Y16859D01*
X194598Y16786D01*
X194532Y16720D01*
X194459Y16662D01*
X194401Y16618D01*
X194343Y16575D01*
X194299Y16545D01*
X194262Y16531D01*
X194255Y16524D01*
X194160Y16480D01*
X194065Y16451D01*
X193971Y16429D01*
X193883Y16414D01*
X193810Y16407D01*
X193752Y16400D01*
X193701D01*
X193548Y16407D01*
X193395Y16436D01*
X193264Y16473D01*
X193140Y16516D01*
X193038Y16560D01*
X192965Y16597D01*
X192936Y16611D01*
X192914Y16626D01*
X192906Y16633D01*
X192899D01*
X192761Y16735D01*
X192644Y16844D01*
X192542Y16954D01*
X192462Y17063D01*
X192396Y17165D01*
X192345Y17245D01*
X192331Y17275D01*
X192316Y17296D01*
X192309Y17311D01*
Y17318D01*
X192243Y17493D01*
X192192Y17668D01*
X192156Y17836D01*
X192126Y17996D01*
X192112Y18127D01*
Y18186D01*
X192104Y18237D01*
Y18281D01*
Y18310D01*
Y18324D01*
Y18331D01*
X192112Y18521D01*
X192134Y18703D01*
X192163Y18864D01*
X192199Y19010D01*
X192236Y19126D01*
X192250Y19177D01*
X192265Y19221D01*
X192280Y19250D01*
X192287Y19272D01*
X192294Y19286D01*
Y19294D01*
X192367Y19447D01*
X192454Y19585D01*
X192542Y19702D01*
X192629Y19797D01*
X192710Y19870D01*
X192775Y19928D01*
X192819Y19957D01*
X192826Y19972D01*
X192833D01*
X192972Y20052D01*
X193111Y20118D01*
X193249Y20161D01*
X193380Y20190D01*
X193490Y20205D01*
X193541Y20212D01*
X193577Y20220D01*
X193657D01*
X193789Y20212D01*
D02*
G37*
G36*
X198396Y56759D02*
X198469D01*
X198687Y56614D01*
X199052Y56468D01*
X199416Y56249D01*
X199854Y55958D01*
X200291Y55520D01*
X200729Y55010D01*
X201020Y54427D01*
Y54354D01*
Y54281D01*
X201093Y54062D01*
Y53771D01*
X201166Y51729D01*
Y51656D01*
Y51438D01*
Y51073D01*
Y50709D01*
Y49834D01*
Y49469D01*
Y49178D01*
Y49032D01*
X201093Y48740D01*
X200947Y48376D01*
X200801Y48011D01*
X200729Y47866D01*
X200510Y47574D01*
X200218Y47210D01*
X199781Y46845D01*
X199635Y46772D01*
X199344Y46553D01*
X198906Y46262D01*
X198323Y46043D01*
X198250D01*
X198031Y45970D01*
X196865D01*
X196500Y46043D01*
X196136Y46116D01*
X196063D01*
X195844Y46262D01*
X195553Y46408D01*
X195188Y46626D01*
X194824Y46918D01*
X194386Y47282D01*
X194095Y47793D01*
X193803Y48376D01*
Y48449D01*
X193730Y48667D01*
X193657Y48886D01*
X193730Y49032D01*
X193876D01*
X194095Y49105D01*
X195334D01*
X195480Y48740D01*
Y48667D01*
X195626Y48522D01*
X195771Y48376D01*
X196063Y48157D01*
X196136Y48084D01*
X196282Y48011D01*
X196792Y47720D01*
X196938Y47647D01*
X197813D01*
X198396Y47866D01*
X198542Y47938D01*
X198833Y48157D01*
X199198Y48595D01*
X199416Y49178D01*
Y49251D01*
X199489Y49542D01*
Y50053D01*
X199562Y50782D01*
Y50854D01*
Y51000D01*
Y51219D01*
Y51438D01*
Y52094D01*
Y52750D01*
Y52896D01*
X199489Y53187D01*
X199416Y53625D01*
X199344Y53989D01*
Y54062D01*
X199198Y54208D01*
X199052Y54427D01*
X198760Y54718D01*
X198687Y54791D01*
X198396Y54937D01*
X197958Y55156D01*
X197302Y55229D01*
X197011D01*
X196792Y55156D01*
X196500Y55010D01*
X196355Y54937D01*
X196063Y54791D01*
X195771Y54427D01*
X195480Y53989D01*
X195334Y53698D01*
X193657D01*
Y53916D01*
Y53989D01*
X193730Y54135D01*
X193803Y54427D01*
X193949Y54791D01*
Y54864D01*
X194095Y55010D01*
X194459Y55447D01*
X195042Y56030D01*
X195844Y56541D01*
X195917D01*
X196063Y56614D01*
X196282Y56687D01*
X196573Y56759D01*
X197375Y56832D01*
X197886D01*
X198396Y56759D01*
D02*
G37*
G36*
X239730Y51365D02*
Y51292D01*
Y51146D01*
Y50927D01*
Y50563D01*
Y50125D01*
Y49469D01*
Y48667D01*
Y45970D01*
X235866D01*
X234846Y46043D01*
X234700D01*
X234263Y46189D01*
X233679Y46408D01*
X233169Y46845D01*
X233023Y46991D01*
X232805Y47282D01*
X232513Y47866D01*
X232294Y48595D01*
Y48667D01*
Y48740D01*
Y49178D01*
X232367Y49761D01*
X232586Y50417D01*
X232659Y50563D01*
X232877Y50854D01*
X233242Y51219D01*
X233752Y51511D01*
X233971Y51583D01*
X233752Y51656D01*
X233607Y51729D01*
X233315Y51948D01*
X232950Y52312D01*
X232659Y52750D01*
X232586Y52896D01*
X232513Y53260D01*
Y53333D01*
X232440Y53406D01*
Y53625D01*
Y53989D01*
Y54062D01*
Y54281D01*
Y54500D01*
X232513Y54718D01*
Y54864D01*
X232659Y55229D01*
Y55301D01*
X232732Y55374D01*
X233023Y55739D01*
X233461Y56176D01*
X234117Y56541D01*
X234190D01*
X234263Y56614D01*
X234481Y56687D01*
X234773D01*
X239730Y56759D01*
Y51365D01*
D02*
G37*
G36*
X227337Y56687D02*
X227410Y56614D01*
X227483Y56468D01*
X227556Y56249D01*
X230836Y46991D01*
Y46918D01*
X230909Y46845D01*
X230982Y46553D01*
X231128Y46262D01*
X231201Y46116D01*
X231055Y46043D01*
X230836Y45970D01*
X230326D01*
X229451Y46043D01*
X228649Y48449D01*
X224640D01*
X223692Y45970D01*
X222015D01*
X225952Y56759D01*
X227337D01*
Y56687D01*
D02*
G37*
G36*
X220484Y51365D02*
Y51292D01*
Y51146D01*
Y50927D01*
Y50563D01*
Y50125D01*
Y49469D01*
Y48667D01*
Y45970D01*
X213559D01*
Y47574D01*
X218808D01*
Y56759D01*
X220484D01*
Y51365D01*
D02*
G37*
G36*
X214361Y56030D02*
Y55958D01*
Y55812D01*
Y55666D01*
Y55301D01*
X211445D01*
X211372Y46043D01*
X209768Y45970D01*
Y55301D01*
X206852D01*
Y56759D01*
X214361D01*
Y56030D01*
D02*
G37*
G36*
X205175Y51365D02*
Y51292D01*
Y51146D01*
Y50927D01*
Y50563D01*
Y50125D01*
Y49469D01*
Y48667D01*
Y45970D01*
X203572D01*
Y56759D01*
X205175D01*
Y51365D01*
D02*
G37*
G36*
X205977Y38680D02*
Y38607D01*
Y38462D01*
Y38170D01*
Y37878D01*
Y37368D01*
Y36785D01*
Y35983D01*
Y33213D01*
X204447D01*
X204374Y39701D01*
Y39774D01*
Y39847D01*
Y40211D01*
Y40648D01*
Y40721D01*
Y40794D01*
X204301Y40721D01*
X204155Y40503D01*
X203936Y40138D01*
X199562Y33213D01*
X198031Y33286D01*
Y44075D01*
X199635D01*
Y37514D01*
Y37441D01*
Y37368D01*
X199708Y37076D01*
Y36712D01*
X199781Y36639D01*
Y36712D01*
X199927Y36785D01*
X200073Y37076D01*
X204519Y44075D01*
X205977D01*
Y38680D01*
D02*
G37*
G36*
X217131Y44075D02*
X217204D01*
X217350Y44002D01*
X217568D01*
X217860Y43856D01*
X218516Y43565D01*
X219245Y43054D01*
Y42981D01*
X219391Y42908D01*
X219683Y42471D01*
X220047Y41815D01*
X220339Y40940D01*
Y40867D01*
Y40794D01*
Y40576D01*
Y40284D01*
X220412Y39555D01*
Y38607D01*
Y38534D01*
Y38389D01*
Y38097D01*
Y37805D01*
Y37003D01*
X220339Y36347D01*
Y36274D01*
X220266Y36056D01*
X220120Y35764D01*
X219974Y35327D01*
X219756Y34962D01*
X219391Y34525D01*
X218954Y34087D01*
X218370Y33723D01*
X218298Y33650D01*
X218079Y33504D01*
X217860Y33358D01*
X217568Y33286D01*
X217496D01*
X217277Y33213D01*
X215892D01*
X215673Y33286D01*
X215527D01*
X215163Y33358D01*
X215090D01*
X215017Y33431D01*
X214652Y33650D01*
X214142Y33942D01*
X213705Y34379D01*
X213632Y34452D01*
X213486Y34598D01*
X213340Y34817D01*
X213122Y35181D01*
X213049Y35254D01*
X212976Y35473D01*
X212830Y35764D01*
X212757Y36056D01*
Y36274D01*
X214434D01*
X214725Y35983D01*
Y35910D01*
X214798Y35764D01*
X215163Y35400D01*
X215746Y34962D01*
X216110Y34889D01*
X216548Y34817D01*
X216694D01*
X217058Y34889D01*
X217131D01*
X217277Y34962D01*
X217496Y35108D01*
X217568D01*
X217641Y35181D01*
X218006Y35546D01*
X218370Y36056D01*
X218516Y36493D01*
X218589Y36931D01*
Y37003D01*
Y37368D01*
X218662Y37878D01*
Y38607D01*
Y38680D01*
Y38753D01*
Y39263D01*
Y39774D01*
X218589Y40357D01*
Y40430D01*
Y40503D01*
X218516Y40867D01*
X218298Y41377D01*
X218006Y41815D01*
X217933Y41888D01*
X217714Y42107D01*
X217423Y42325D01*
X217058Y42471D01*
X216256D01*
X215819Y42325D01*
X215746D01*
X215673Y42252D01*
X215382Y42034D01*
X215017Y41742D01*
X214652Y41305D01*
X214434Y40940D01*
X212976D01*
X212830Y41013D01*
X212757Y41086D01*
Y41232D01*
X212830Y41450D01*
Y41523D01*
X212976Y41742D01*
X213194Y42107D01*
X213486Y42471D01*
X213851Y42908D01*
X214288Y43346D01*
X214798Y43710D01*
X215454Y44002D01*
X215527D01*
X215673Y44075D01*
X215892D01*
X216256Y44148D01*
X216548D01*
X217131Y44075D01*
D02*
G37*
G36*
X192418Y44002D02*
X192491D01*
X192564Y43929D01*
X193001Y43783D01*
X193584Y43492D01*
X194240Y42981D01*
X194386Y42836D01*
X194605Y42544D01*
X194969Y42034D01*
X195188Y41377D01*
Y41305D01*
Y41159D01*
X195261Y40940D01*
Y40648D01*
Y40211D01*
X195334Y39628D01*
Y38972D01*
Y38243D01*
X195188Y36056D01*
Y35983D01*
Y35910D01*
X195042Y35546D01*
X194751Y35035D01*
X194386Y34525D01*
X194240Y34379D01*
X193949Y34087D01*
X193439Y33723D01*
X192782Y33358D01*
X192710D01*
X192637Y33286D01*
X192199D01*
X192053Y33213D01*
X190668D01*
X190595Y33286D01*
X190231Y33358D01*
X190158D01*
X190085Y33431D01*
X189648Y33650D01*
X189065Y34087D01*
X188409Y34671D01*
Y34744D01*
X188336Y34817D01*
X188190Y35035D01*
X188117Y35327D01*
X188044Y35400D01*
X187971Y35546D01*
X187752Y36056D01*
Y36129D01*
X187680Y36420D01*
Y36639D01*
X187607Y36931D01*
Y37368D01*
Y37878D01*
Y39263D01*
X191470D01*
Y37660D01*
X189283Y37587D01*
X189356Y37076D01*
Y37003D01*
Y36858D01*
X189429Y36420D01*
X189648Y35910D01*
X190012Y35400D01*
X190085Y35327D01*
X190377Y35108D01*
X190887Y34889D01*
X191470Y34817D01*
X191762D01*
X191981Y34889D01*
X192345Y35035D01*
X192710Y35254D01*
X193001Y35618D01*
X193366Y35983D01*
X193584Y36566D01*
Y36712D01*
Y37003D01*
X193657Y37295D01*
Y37660D01*
Y38097D01*
Y38607D01*
Y38680D01*
Y38826D01*
Y39118D01*
Y39409D01*
Y40065D01*
X193584Y40357D01*
Y40648D01*
Y40721D01*
X193511Y40794D01*
X193366Y41232D01*
X193001Y41742D01*
X192491Y42179D01*
X192418D01*
X192345Y42252D01*
X191981Y42398D01*
X191397Y42471D01*
X191106Y42398D01*
X190741Y42325D01*
X190668D01*
X190523Y42179D01*
X190304Y42034D01*
X190012Y41815D01*
X189939Y41742D01*
X189794Y41596D01*
X189648Y41377D01*
X189502Y41159D01*
X189429Y40940D01*
X187680D01*
Y41159D01*
Y41232D01*
X187752Y41450D01*
X187898Y41742D01*
X188117Y42107D01*
X188190Y42179D01*
X188336Y42398D01*
X188773Y42981D01*
X188846Y43054D01*
X188992Y43127D01*
X189429Y43565D01*
X189502D01*
X189648Y43710D01*
X190158Y43929D01*
X190231D01*
X190377Y44002D01*
X190741D01*
X191106Y44075D01*
X192053D01*
X192418Y44002D01*
D02*
G37*
G36*
X227410Y42836D02*
Y42763D01*
X227483Y42690D01*
X227556Y42471D01*
X227629Y42179D01*
X227920Y41523D01*
X228212Y40648D01*
X230836Y33286D01*
X229160D01*
X228285Y35691D01*
X224202D01*
X223400Y33213D01*
X222161D01*
X221870Y33286D01*
X221724D01*
X225442Y43637D01*
Y43710D01*
X225515Y43783D01*
X225588Y43929D01*
X225660Y44002D01*
X225733D01*
X225952Y44075D01*
X226900D01*
X227410Y42836D01*
D02*
G37*
G36*
X239730Y38680D02*
Y38607D01*
Y38462D01*
Y38170D01*
Y37878D01*
Y37368D01*
Y36785D01*
Y35983D01*
Y33213D01*
X238126Y33286D01*
X238053Y37878D01*
X236085D01*
X233825Y33213D01*
X231930Y33286D01*
X234408Y38097D01*
X233971Y38243D01*
X233825Y38316D01*
X233534Y38534D01*
X233169Y38826D01*
X232732Y39336D01*
Y39409D01*
X232659Y39555D01*
X232513Y39774D01*
X232440Y40138D01*
Y40211D01*
X232367Y40430D01*
X232294Y41013D01*
Y41086D01*
Y41232D01*
X232367Y41523D01*
X232440Y41815D01*
Y41888D01*
X232513Y42107D01*
X232732Y42617D01*
X232805Y42690D01*
X232877Y42836D01*
X233315Y43273D01*
X233388Y43346D01*
X233534Y43419D01*
X233825Y43637D01*
X234117Y43783D01*
X234190D01*
X234408Y43856D01*
X234700Y43929D01*
X235210Y44002D01*
X235793D01*
X236085Y44075D01*
X239730D01*
Y38680D01*
D02*
G37*
G36*
X210789D02*
Y38607D01*
Y38462D01*
Y38170D01*
Y37878D01*
Y37368D01*
Y36785D01*
Y35983D01*
Y33213D01*
X209185D01*
Y44075D01*
X210789D01*
Y38680D01*
D02*
G37*
G36*
X189502Y51511D02*
Y51438D01*
Y51292D01*
Y51073D01*
Y50709D01*
Y50271D01*
Y49615D01*
Y48886D01*
Y46335D01*
X179150Y46189D01*
X185420Y33067D01*
X175505Y33067D01*
X174557Y34744D01*
X167268Y34817D01*
X166174D01*
X162310Y42836D01*
Y42908D01*
X162237Y42981D01*
X162092Y43346D01*
X161946Y43783D01*
X161873Y43929D01*
Y44002D01*
X162092D01*
X162383Y44075D01*
X177328D01*
X177546Y44148D01*
X177692D01*
X176744Y46189D01*
X161071Y46335D01*
Y46553D01*
Y46626D01*
Y46845D01*
X161144Y47210D01*
X161217Y47720D01*
Y47866D01*
X161290Y48157D01*
X161363Y48667D01*
X161435Y49105D01*
Y49178D01*
X161508Y49324D01*
X161581Y49615D01*
X161727Y49980D01*
X162019Y50854D01*
X162456Y51729D01*
Y51802D01*
X162602Y51948D01*
X162748Y52094D01*
X162893Y52385D01*
X163477Y53114D01*
X164206Y53843D01*
X164279Y53916D01*
X164570Y54208D01*
X165008Y54645D01*
X165591Y55010D01*
X165737Y55083D01*
X166028Y55301D01*
X166539Y55593D01*
X167122Y55812D01*
X168507Y56249D01*
X169673Y56541D01*
X169746Y56614D01*
X170111D01*
X170475Y56687D01*
X171423D01*
X189502Y56759D01*
Y51511D01*
D02*
G37*
G36*
X228722Y30297D02*
Y30224D01*
Y30078D01*
Y29786D01*
Y27089D01*
X228139D01*
Y28256D01*
Y28328D01*
Y28401D01*
Y28839D01*
Y29203D01*
X228066Y29276D01*
X227045Y27672D01*
X226973Y27599D01*
X226900Y27454D01*
X226754Y27235D01*
X226681Y27162D01*
X226608Y27089D01*
X226244D01*
Y30370D01*
X226681D01*
Y29276D01*
Y29203D01*
Y29130D01*
Y28766D01*
Y28474D01*
X226754Y28401D01*
Y28328D01*
X226827D01*
X226900Y28401D01*
X226973Y28547D01*
X228066Y30151D01*
X228139Y30224D01*
X228285Y30297D01*
X228431Y30370D01*
X228722D01*
Y30297D01*
D02*
G37*
G36*
X236887Y28766D02*
Y28693D01*
Y28620D01*
Y28328D01*
Y27891D01*
Y27089D01*
X236450D01*
Y28256D01*
Y28328D01*
Y28401D01*
Y28766D01*
Y29057D01*
X236377Y29203D01*
Y29276D01*
X236231Y29130D01*
X236012Y28839D01*
X235793Y28547D01*
X235575Y28256D01*
Y28183D01*
X235502Y28110D01*
X235356Y27818D01*
X235137Y27527D01*
X234992Y27308D01*
Y27235D01*
X234919Y27162D01*
X234773Y27089D01*
X234481D01*
Y30370D01*
X234992D01*
Y28183D01*
X236377Y30224D01*
X236450Y30297D01*
X236668Y30370D01*
X236887D01*
Y28766D01*
D02*
G37*
G36*
X194824Y29130D02*
Y29057D01*
Y28984D01*
Y28693D01*
Y28328D01*
Y28037D01*
Y27964D01*
X194751Y27891D01*
X194678Y27599D01*
X194605Y27527D01*
X194386Y27308D01*
X194095Y27162D01*
X193730Y27089D01*
X193584D01*
X193366Y27162D01*
X193001Y27235D01*
X192710Y27527D01*
X192637Y27599D01*
X192564Y27672D01*
Y27891D01*
X192491Y30370D01*
X192928D01*
X193001Y29203D01*
Y29130D01*
Y29057D01*
Y28693D01*
Y28256D01*
X193074Y27964D01*
Y27891D01*
X193147Y27818D01*
X193220Y27672D01*
X193439Y27599D01*
X193803D01*
X194022Y27672D01*
X194168Y27745D01*
X194240Y27891D01*
X194313Y28110D01*
Y28183D01*
Y28328D01*
X194386Y28693D01*
Y29276D01*
Y30370D01*
X194824D01*
Y29130D01*
D02*
G37*
G36*
X232950Y30224D02*
X233023D01*
X233169Y30078D01*
X233315Y30005D01*
X233461Y29786D01*
Y29713D01*
Y29495D01*
X233534Y29203D01*
Y28693D01*
X233461Y28037D01*
Y27964D01*
Y27891D01*
X233388Y27599D01*
X233315Y27527D01*
X233242Y27381D01*
X233023Y27235D01*
X232732Y27162D01*
X232659D01*
X232440Y27089D01*
X232149Y27162D01*
X231857Y27235D01*
X231784D01*
X231638Y27308D01*
X231492Y27454D01*
X231347Y27599D01*
Y27672D01*
X231274Y27745D01*
X231201Y27964D01*
X231128Y28328D01*
Y28912D01*
X232294D01*
Y28693D01*
Y28620D01*
Y28547D01*
X232221Y28474D01*
X231784D01*
X231711Y28328D01*
Y28037D01*
Y27964D01*
X231784Y27891D01*
X231857Y27745D01*
X232076Y27599D01*
X232149D01*
X232221Y27527D01*
X232440D01*
X232659Y27599D01*
X232732D01*
X232805Y27745D01*
X232950Y28037D01*
X233023Y28474D01*
Y28547D01*
Y28693D01*
X232950Y29130D01*
X232805Y29641D01*
X232586Y29786D01*
X232294Y29859D01*
X232076D01*
X231930Y29713D01*
X231857Y29641D01*
X231784Y29568D01*
X231638Y29495D01*
X231419Y29422D01*
X231274D01*
X231201Y29495D01*
Y29568D01*
Y29641D01*
X231347Y29859D01*
X231565Y30078D01*
X231857Y30297D01*
X231930D01*
X232149Y30370D01*
X232513D01*
X232950Y30224D01*
D02*
G37*
G36*
X190960Y30297D02*
X191106Y30224D01*
X191324Y30005D01*
X191470Y29786D01*
X191543Y29495D01*
X191616Y29130D01*
Y28693D01*
Y28620D01*
Y28547D01*
X191543Y28183D01*
X191470Y27745D01*
X191252Y27381D01*
X191179Y27308D01*
X191033Y27235D01*
X190741Y27089D01*
X190304D01*
X190012Y27162D01*
X189794Y27308D01*
X189502Y27599D01*
X189429Y27672D01*
X189356Y27818D01*
Y27964D01*
X189429Y28037D01*
X189575D01*
X189721Y27964D01*
X189866Y27891D01*
X190012Y27745D01*
X190085Y27672D01*
X190231Y27599D01*
X190377Y27527D01*
X190668Y27599D01*
X190741D01*
X190814Y27672D01*
X190960Y27818D01*
X191033Y28037D01*
Y28110D01*
Y28256D01*
X191106Y28474D01*
Y28839D01*
Y28912D01*
Y29057D01*
Y29276D01*
Y29495D01*
X191033Y29568D01*
X190887Y29713D01*
X190814Y29786D01*
X190595Y29859D01*
X190304D01*
X190012Y29713D01*
X189939Y29641D01*
X189866Y29495D01*
X189794Y29422D01*
X189429D01*
X189356Y29495D01*
Y29568D01*
Y29641D01*
X189502Y29932D01*
X189575Y30005D01*
X189866Y30224D01*
X190012Y30297D01*
X190158Y30370D01*
X190595D01*
X190960Y30297D01*
D02*
G37*
G36*
X188117Y30224D02*
X188190D01*
X188263Y30151D01*
X188554Y29859D01*
Y29786D01*
X188627Y29641D01*
X188700Y29349D01*
Y28984D01*
Y28839D01*
Y28620D01*
Y28328D01*
Y28037D01*
Y27964D01*
X188627Y27818D01*
X188481Y27454D01*
X188409Y27381D01*
X188336Y27308D01*
X188044Y27162D01*
X187971D01*
X187680Y27089D01*
X187388Y27162D01*
X187023Y27235D01*
X186951D01*
X186805Y27381D01*
X186586Y27527D01*
X186367Y27818D01*
Y27891D01*
X186440Y27964D01*
X186586Y28037D01*
X186659D01*
X186732Y27964D01*
X186878Y27891D01*
X187023Y27745D01*
X187096Y27672D01*
X187242Y27599D01*
X187461Y27527D01*
X187752Y27599D01*
X187825D01*
X187898Y27672D01*
X188044Y27818D01*
X188117Y28037D01*
Y28110D01*
Y28183D01*
X188190Y28474D01*
Y28839D01*
X188117Y29495D01*
Y29568D01*
X188044Y29786D01*
X187898Y29859D01*
X187607Y29932D01*
X187388D01*
X187242Y29859D01*
X187096Y29713D01*
X187023Y29641D01*
X186951Y29568D01*
X186805Y29495D01*
X186586Y29422D01*
X186440D01*
X186367Y29495D01*
Y29641D01*
X186440Y29713D01*
X186513Y29859D01*
X186732Y30078D01*
X187096Y30297D01*
X187169D01*
X187388Y30370D01*
X187680D01*
X188117Y30224D01*
D02*
G37*
G36*
X182431Y30224D02*
X182504Y30151D01*
X182649Y30005D01*
X182795Y29786D01*
X182868Y29422D01*
Y29349D01*
Y29276D01*
X182722Y28984D01*
X182358Y28693D01*
X182139Y28547D01*
X181775Y28474D01*
X181702D01*
X181483Y28401D01*
X181264Y28256D01*
X181119Y28110D01*
Y28037D01*
Y27891D01*
X181264Y27745D01*
X181556Y27599D01*
X181920D01*
X182139Y27672D01*
X182212D01*
X182358Y27745D01*
X182504Y27818D01*
X182577Y27891D01*
X182722Y27891D01*
X182941Y27672D01*
X183014Y27454D01*
X182722Y27308D01*
X182649D01*
X182358Y27235D01*
X181993Y27162D01*
X181556D01*
X181264Y27235D01*
X181046Y27308D01*
X180754Y27527D01*
X180681Y27599D01*
X180608Y27745D01*
Y27964D01*
X180681Y28328D01*
X180754Y28401D01*
X180900Y28620D01*
X181191Y28839D01*
X181629Y28984D01*
X181702D01*
X181993Y29057D01*
X182212Y29130D01*
X182358Y29276D01*
Y29422D01*
Y29568D01*
X182285Y29713D01*
X182139Y29786D01*
X181848Y29859D01*
X181629D01*
X181264Y29786D01*
X181046Y29713D01*
X180973D01*
X180900Y29859D01*
X180681Y30078D01*
X180754Y30151D01*
X180827D01*
X181119Y30224D01*
X181264Y30297D01*
X181556D01*
X181993Y30370D01*
X182431Y30224D01*
D02*
G37*
G36*
X179296D02*
X179369Y30151D01*
X179515Y30078D01*
X179660Y29859D01*
X179806Y29641D01*
Y29568D01*
Y29422D01*
X179733Y29203D01*
X179588Y28912D01*
X179515Y28839D01*
X179369Y28693D01*
X179077Y28547D01*
X178640Y28474D01*
X178567D01*
X178348Y28401D01*
X178202Y28256D01*
X178130Y28037D01*
Y27964D01*
X178202Y27818D01*
X178275Y27672D01*
X178567Y27599D01*
X179150D01*
X179515Y27745D01*
X179588Y27818D01*
X179660Y27745D01*
X179806Y27672D01*
X179879Y27599D01*
Y27527D01*
X179806Y27381D01*
X179733Y27308D01*
X179515Y27235D01*
X179442D01*
X179369Y27162D01*
X178494D01*
X177984Y27308D01*
X177911Y27381D01*
X177692Y27599D01*
X177619Y27964D01*
Y28183D01*
X177692Y28474D01*
X177765Y28547D01*
X177911Y28693D01*
X178275Y28839D01*
X178640Y28984D01*
X178859D01*
X179077Y29130D01*
X179296Y29276D01*
Y29349D01*
Y29422D01*
Y29641D01*
X179150Y29786D01*
X179077D01*
X178859Y29859D01*
X178567D01*
X178202Y29786D01*
X178130D01*
X178057Y29713D01*
X177911Y29786D01*
X177838Y29859D01*
X177765D01*
X177692Y30005D01*
X177765Y30078D01*
X177911Y30151D01*
X178057Y30224D01*
X178202Y30297D01*
X178494D01*
X178859Y30370D01*
X179296Y30224D01*
D02*
G37*
G36*
X239730Y30297D02*
X239803Y30151D01*
Y29859D01*
Y27089D01*
X237689D01*
Y27527D01*
X239293D01*
Y28474D01*
X237981Y28547D01*
Y28984D01*
X239366D01*
Y29859D01*
X237762Y29932D01*
Y30370D01*
X239730D01*
Y30297D01*
D02*
G37*
G36*
X230253D02*
Y30224D01*
Y30078D01*
Y29786D01*
Y27089D01*
X229743D01*
Y30370D01*
X230253D01*
Y30297D01*
D02*
G37*
G36*
X225150D02*
Y30151D01*
Y29859D01*
Y27089D01*
X223036D01*
Y27527D01*
X224640D01*
Y28547D01*
X223255D01*
X223328Y28984D01*
X224640D01*
Y29859D01*
X223036D01*
X223109Y30370D01*
X225150D01*
Y30297D01*
D02*
G37*
G36*
X222234D02*
Y30224D01*
Y30078D01*
Y29786D01*
Y27089D01*
X220047D01*
Y27527D01*
X221724D01*
Y28547D01*
X220339D01*
Y28984D01*
X221724D01*
Y29859D01*
X220047D01*
X220120Y30370D01*
X222234D01*
Y30297D01*
D02*
G37*
G36*
X219318D02*
Y30224D01*
Y30078D01*
Y29786D01*
Y27089D01*
X218808D01*
Y28474D01*
X218152D01*
X217496Y27089D01*
X216912D01*
X217641Y28547D01*
X217496Y28620D01*
X217423Y28693D01*
X217277Y28839D01*
X217131Y29130D01*
X217058Y29495D01*
Y29568D01*
Y29786D01*
X217204Y30005D01*
X217568Y30224D01*
X217641Y30297D01*
X217860Y30370D01*
X219318D01*
Y30297D01*
D02*
G37*
G36*
X216110Y28766D02*
Y28693D01*
Y28620D01*
Y28328D01*
Y27891D01*
Y27089D01*
X213996D01*
Y27527D01*
X215600D01*
Y28474D01*
X214215Y28547D01*
Y28984D01*
X215600D01*
Y29859D01*
X213996Y29932D01*
Y30370D01*
X216110D01*
Y28766D01*
D02*
G37*
G36*
X213194Y28693D02*
Y28547D01*
Y28328D01*
Y27891D01*
Y27089D01*
X211955D01*
X211518Y27235D01*
X211226Y27381D01*
X211153Y27454D01*
X211080Y27599D01*
X210935Y27964D01*
X210862Y28474D01*
Y28547D01*
Y28620D01*
Y29057D01*
X210935Y29568D01*
X211153Y30005D01*
X211299Y30151D01*
X211664Y30297D01*
X211882D01*
X212174Y30370D01*
X213194D01*
Y28693D01*
D02*
G37*
G36*
X208456Y30297D02*
Y30224D01*
Y30078D01*
Y29786D01*
Y27089D01*
X208019D01*
Y28474D01*
X206561D01*
Y28912D01*
X208019D01*
Y29859D01*
X206342Y29932D01*
Y30370D01*
X208529D01*
X208456Y30297D01*
D02*
G37*
G36*
X205103Y30224D02*
X205248Y30151D01*
X205467Y30005D01*
Y29932D01*
X205540Y29859D01*
X205613Y29641D01*
Y27818D01*
Y27745D01*
X205540Y27527D01*
X205467Y27454D01*
X205248Y27308D01*
X204957Y27162D01*
X204519Y27089D01*
X204374D01*
X204155Y27162D01*
X203863Y27308D01*
X203572Y27672D01*
X203499Y27745D01*
X203426Y28037D01*
Y28766D01*
Y28912D01*
Y29203D01*
Y29495D01*
X203499Y29713D01*
X203572Y29786D01*
X203645Y29932D01*
X204082Y30297D01*
X204228D01*
X204374Y30370D01*
X204738D01*
X205103Y30224D01*
D02*
G37*
G36*
X202478Y28766D02*
Y28693D01*
Y28620D01*
Y28328D01*
Y27891D01*
Y27089D01*
X201968D01*
Y28474D01*
X201312D01*
X200656Y27089D01*
X200000D01*
X200801Y28474D01*
X200437Y28766D01*
X200364Y28839D01*
X200218Y29057D01*
Y29130D01*
Y29203D01*
Y29422D01*
Y29495D01*
Y29713D01*
Y29932D01*
X200364Y30078D01*
X200510Y30151D01*
X200874Y30297D01*
X201020D01*
X201312Y30370D01*
X202478D01*
Y28766D01*
D02*
G37*
G36*
X197375Y30224D02*
X197448Y30151D01*
X197667Y29932D01*
X197886Y29495D01*
Y29276D01*
X197813Y28984D01*
X197740Y28912D01*
X197594Y28766D01*
X197302Y28620D01*
X196865Y28547D01*
X196719D01*
X196500Y28401D01*
X196282Y28328D01*
X196136Y28110D01*
Y28037D01*
X196209Y27891D01*
X196282Y27745D01*
X196500Y27672D01*
X196573D01*
X196719Y27599D01*
X197157D01*
X197594Y27745D01*
X197740Y27818D01*
X197813D01*
X197958Y27745D01*
Y27672D01*
X198031Y27527D01*
X197958Y27454D01*
X197813Y27308D01*
X197667Y27235D01*
X197594D01*
X197448Y27162D01*
X197011Y27089D01*
X196573D01*
X196209Y27235D01*
X195844Y27454D01*
X195771Y27527D01*
X195698Y27672D01*
X195626Y28037D01*
X195771Y28401D01*
X195844Y28474D01*
X195990Y28693D01*
X196282Y28912D01*
X196719Y28984D01*
X196938D01*
X197157Y29130D01*
X197302Y29276D01*
Y29349D01*
X197375Y29422D01*
Y29568D01*
X197302Y29713D01*
X197229D01*
X197157Y29786D01*
X196792Y29859D01*
X196646D01*
X196355Y29786D01*
X196063Y29713D01*
X195990D01*
X195917Y29859D01*
X195844Y29932D01*
X195771Y30078D01*
X195844Y30151D01*
X195917D01*
X196136Y30224D01*
X196282Y30297D01*
X196573D01*
X197011Y30370D01*
X197375Y30224D01*
D02*
G37*
G36*
X185711Y30297D02*
Y30224D01*
Y30078D01*
Y29786D01*
Y27089D01*
X183524D01*
X183451Y27527D01*
X185201D01*
Y28547D01*
X183816D01*
Y28984D01*
X185201D01*
Y29859D01*
X183524Y29932D01*
Y30370D01*
X185711D01*
Y30297D01*
D02*
G37*
%LPC*%
G36*
X187497Y19709D02*
X187388D01*
X187315Y19695D01*
X187177Y19658D01*
X187060Y19600D01*
X186958Y19542D01*
X186878Y19476D01*
X186819Y19418D01*
X186783Y19381D01*
X186768Y19374D01*
Y19367D01*
X186717Y19301D01*
X186673Y19221D01*
X186601Y19060D01*
X186549Y18878D01*
X186520Y18711D01*
X186498Y18557D01*
X186491Y18485D01*
Y18426D01*
X186484Y18375D01*
Y18339D01*
Y18317D01*
Y18310D01*
Y18186D01*
X186498Y18062D01*
X186513Y17952D01*
X186528Y17850D01*
X186549Y17756D01*
X186579Y17668D01*
X186608Y17595D01*
X186630Y17522D01*
X186659Y17464D01*
X186688Y17406D01*
X186710Y17362D01*
X186739Y17325D01*
X186754Y17296D01*
X186768Y17275D01*
X186783Y17267D01*
Y17260D01*
X186841Y17202D01*
X186899Y17143D01*
X187016Y17056D01*
X187133Y16997D01*
X187242Y16954D01*
X187337Y16932D01*
X187417Y16917D01*
X187446Y16910D01*
X187483D01*
X187577Y16917D01*
X187658Y16932D01*
X187745Y16954D01*
X187818Y16983D01*
X187957Y17063D01*
X188066Y17151D01*
X188161Y17231D01*
X188226Y17311D01*
X188248Y17340D01*
X188263Y17362D01*
X188277Y17377D01*
Y17384D01*
X188306Y17442D01*
X188336Y17508D01*
X188379Y17654D01*
X188409Y17814D01*
X188430Y17967D01*
X188445Y18105D01*
Y18171D01*
X188452Y18222D01*
Y18266D01*
Y18302D01*
Y18324D01*
Y18331D01*
Y18455D01*
X188438Y18565D01*
X188423Y18674D01*
X188409Y18776D01*
X188387Y18864D01*
X188357Y18951D01*
X188336Y19024D01*
X188306Y19097D01*
X188277Y19155D01*
X188255Y19206D01*
X188226Y19250D01*
X188204Y19286D01*
X188190Y19316D01*
X188175Y19338D01*
X188161Y19345D01*
Y19352D01*
X188102Y19418D01*
X188044Y19469D01*
X187986Y19520D01*
X187927Y19556D01*
X187811Y19622D01*
X187701Y19666D01*
X187607Y19688D01*
X187526Y19702D01*
X187497Y19709D01*
D02*
G37*
G36*
X215484Y19709D02*
X215367D01*
X215294Y19695D01*
X215156Y19658D01*
X215032Y19600D01*
X214930Y19542D01*
X214842Y19476D01*
X214776Y19418D01*
X214740Y19381D01*
X214725Y19374D01*
Y19367D01*
X214674Y19301D01*
X214623Y19228D01*
X214550Y19060D01*
X214499Y18893D01*
X214463Y18725D01*
X214441Y18579D01*
X214434Y18514D01*
Y18455D01*
X214426Y18412D01*
Y18375D01*
Y18353D01*
Y18346D01*
Y18222D01*
X214441Y18098D01*
X214456Y17989D01*
X214470Y17894D01*
X214492Y17799D01*
X214521Y17712D01*
X214543Y17639D01*
X214572Y17573D01*
X214601Y17508D01*
X214623Y17457D01*
X214652Y17413D01*
X214674Y17384D01*
X214689Y17355D01*
X214703Y17333D01*
X214718Y17325D01*
Y17318D01*
X214776Y17260D01*
X214835Y17209D01*
X214951Y17129D01*
X215075Y17070D01*
X215185Y17034D01*
X215287Y17005D01*
X215367Y16997D01*
X215396Y16990D01*
X215440D01*
X215520Y16997D01*
X215593Y17005D01*
X215731Y17041D01*
X215855Y17092D01*
X215957Y17158D01*
X216045Y17216D01*
X216103Y17267D01*
X216140Y17304D01*
X216154Y17318D01*
X216205Y17384D01*
X216249Y17457D01*
X216322Y17624D01*
X216366Y17792D01*
X216402Y17967D01*
X216424Y18120D01*
X216431Y18193D01*
Y18251D01*
X216439Y18302D01*
Y18339D01*
Y18361D01*
Y18368D01*
Y18492D01*
X216424Y18601D01*
X216409Y18703D01*
X216395Y18805D01*
X216373Y18893D01*
X216351Y18973D01*
X216322Y19053D01*
X216293Y19119D01*
X216271Y19177D01*
X216242Y19228D01*
X216220Y19272D01*
X216198Y19301D01*
X216183Y19330D01*
X216169Y19352D01*
X216154Y19359D01*
Y19367D01*
X216096Y19425D01*
X216038Y19483D01*
X215921Y19564D01*
X215804Y19629D01*
X215688Y19666D01*
X215593Y19695D01*
X215513Y19702D01*
X215484Y19709D01*
D02*
G37*
G36*
X220769Y18317D02*
X220761D01*
X220769Y18084D01*
X220776Y17938D01*
X220783Y17814D01*
X220798Y17712D01*
X220820Y17624D01*
X220842Y17559D01*
X220856Y17508D01*
X220864Y17479D01*
X220871Y17471D01*
X220929Y17377D01*
X220988Y17289D01*
X221060Y17216D01*
X221126Y17158D01*
X221184Y17107D01*
X221235Y17070D01*
X221265Y17049D01*
X221279Y17041D01*
X221389Y16990D01*
X221498Y16954D01*
X221600Y16925D01*
X221702Y16910D01*
X221782Y16895D01*
X221855Y16888D01*
X221913D01*
X222045Y16895D01*
X222154Y16910D01*
X222249Y16939D01*
X222329Y16968D01*
X222387Y16997D01*
X222431Y17027D01*
X222460Y17041D01*
X222467Y17049D01*
X222526Y17114D01*
X222569Y17187D01*
X222606Y17253D01*
X222628Y17318D01*
X222642Y17377D01*
X222650Y17420D01*
Y17457D01*
Y17464D01*
X222642Y17522D01*
X222635Y17581D01*
X222621Y17624D01*
X222606Y17668D01*
X222591Y17705D01*
X222584Y17734D01*
X222569Y17748D01*
Y17756D01*
X222497Y17843D01*
X222409Y17901D01*
X222380Y17923D01*
X222351Y17938D01*
X222329Y17952D01*
X222322D01*
X222249Y17982D01*
X222168Y18003D01*
X222081Y18025D01*
X221993Y18040D01*
X221913Y18055D01*
X221840Y18069D01*
X221797Y18076D01*
X221782D01*
X221658Y18098D01*
X221542Y18113D01*
X221440Y18135D01*
X221337Y18157D01*
X221243Y18178D01*
X221163Y18200D01*
X221082Y18215D01*
X221017Y18237D01*
X220958Y18251D01*
X220907Y18266D01*
X220864Y18281D01*
X220827Y18295D01*
X220798Y18302D01*
X220776Y18310D01*
X220769Y18317D01*
D02*
G37*
G36*
X178829Y18317D02*
X178822D01*
X178829Y18084D01*
X178837Y17938D01*
X178844Y17814D01*
X178859Y17712D01*
X178881Y17624D01*
X178902Y17559D01*
X178917Y17508D01*
X178924Y17479D01*
X178931Y17471D01*
X178990Y17377D01*
X179048Y17289D01*
X179121Y17216D01*
X179187Y17158D01*
X179245Y17107D01*
X179296Y17070D01*
X179325Y17049D01*
X179340Y17041D01*
X179449Y16990D01*
X179558Y16954D01*
X179660Y16925D01*
X179763Y16910D01*
X179843Y16895D01*
X179916Y16888D01*
X179974D01*
X180105Y16895D01*
X180215Y16910D01*
X180309Y16939D01*
X180389Y16968D01*
X180448Y16997D01*
X180492Y17027D01*
X180521Y17041D01*
X180528Y17049D01*
X180586Y17114D01*
X180630Y17187D01*
X180666Y17253D01*
X180688Y17318D01*
X180703Y17377D01*
X180710Y17420D01*
Y17457D01*
Y17464D01*
X180703Y17522D01*
X180696Y17581D01*
X180681Y17624D01*
X180666Y17668D01*
X180652Y17705D01*
X180645Y17734D01*
X180630Y17748D01*
Y17756D01*
X180557Y17843D01*
X180470Y17901D01*
X180440Y17923D01*
X180411Y17938D01*
X180389Y17952D01*
X180382D01*
X180309Y17982D01*
X180229Y18003D01*
X180142Y18025D01*
X180054Y18040D01*
X179974Y18055D01*
X179901Y18069D01*
X179857Y18076D01*
X179843D01*
X179719Y18098D01*
X179602Y18113D01*
X179500Y18135D01*
X179398Y18157D01*
X179303Y18178D01*
X179223Y18200D01*
X179143Y18215D01*
X179077Y18237D01*
X179019Y18251D01*
X178968Y18266D01*
X178924Y18281D01*
X178888Y18295D01*
X178859Y18302D01*
X178837Y18310D01*
X178829Y18317D01*
D02*
G37*
G36*
X211452Y19709D02*
X211408D01*
X211321Y19702D01*
X211241Y19695D01*
X211088Y19651D01*
X210957Y19593D01*
X210847Y19527D01*
X210760Y19462D01*
X210694Y19403D01*
X210658Y19359D01*
X210643Y19352D01*
Y19345D01*
X210577Y19250D01*
X210519Y19141D01*
X210483Y19031D01*
X210446Y18915D01*
X210424Y18820D01*
X210410Y18733D01*
Y18703D01*
X210402Y18681D01*
Y18667D01*
Y18660D01*
X212451Y18660D01*
X212429Y18827D01*
X212385Y18980D01*
X212334Y19112D01*
X212276Y19214D01*
X212225Y19301D01*
X212174Y19367D01*
X212145Y19403D01*
X212130Y19418D01*
X212014Y19512D01*
X211897Y19585D01*
X211773Y19636D01*
X211656Y19673D01*
X211561Y19695D01*
X211481Y19702D01*
X211452Y19709D01*
D02*
G37*
G36*
X238236D02*
X238199D01*
X238119Y19702D01*
X238046Y19695D01*
X237908Y19651D01*
X237784Y19600D01*
X237682Y19534D01*
X237601Y19469D01*
X237536Y19410D01*
X237499Y19367D01*
X237485Y19359D01*
Y19352D01*
X237434Y19279D01*
X237390Y19206D01*
X237317Y19031D01*
X237266Y18849D01*
X237230Y18674D01*
X237215Y18587D01*
X237208Y18507D01*
X237200Y18434D01*
Y18375D01*
X237193Y18324D01*
Y18288D01*
Y18259D01*
Y18251D01*
Y18127D01*
X237208Y18011D01*
X237222Y17909D01*
X237237Y17807D01*
X237259Y17719D01*
X237288Y17632D01*
X237310Y17559D01*
X237339Y17493D01*
X237368Y17435D01*
X237390Y17377D01*
X237419Y17340D01*
X237441Y17304D01*
X237456Y17275D01*
X237470Y17253D01*
X237485Y17245D01*
Y17238D01*
X237536Y17180D01*
X237594Y17129D01*
X237711Y17049D01*
X237827Y16990D01*
X237937Y16954D01*
X238032Y16925D01*
X238112Y16917D01*
X238141Y16910D01*
X238177D01*
X238250Y16917D01*
X238323Y16925D01*
X238454Y16961D01*
X238578Y17019D01*
X238680Y17085D01*
X238760Y17143D01*
X238826Y17202D01*
X238863Y17238D01*
X238870Y17253D01*
X238877D01*
X238928Y17325D01*
X238972Y17398D01*
X239045Y17566D01*
X239096Y17741D01*
X239132Y17909D01*
X239154Y18062D01*
X239161Y18127D01*
Y18186D01*
X239169Y18237D01*
Y18273D01*
Y18295D01*
Y18302D01*
Y18434D01*
X239154Y18557D01*
X239140Y18674D01*
X239125Y18776D01*
X239103Y18871D01*
X239081Y18959D01*
X239059Y19039D01*
X239030Y19112D01*
X239001Y19170D01*
X238979Y19221D01*
X238957Y19265D01*
X238935Y19301D01*
X238914Y19330D01*
X238906Y19352D01*
X238892Y19359D01*
Y19367D01*
X238841Y19425D01*
X238782Y19483D01*
X238666Y19564D01*
X238549Y19629D01*
X238440Y19666D01*
X238345Y19695D01*
X238265Y19702D01*
X238236Y19709D01*
D02*
G37*
G36*
X183648Y19709D02*
X183604D01*
X183517Y19702D01*
X183437Y19695D01*
X183291Y19658D01*
X183160Y19600D01*
X183050Y19534D01*
X182963Y19469D01*
X182897Y19418D01*
X182853Y19374D01*
X182839Y19367D01*
Y19359D01*
X182781Y19294D01*
X182737Y19214D01*
X182657Y19053D01*
X182598Y18878D01*
X182562Y18718D01*
X182540Y18565D01*
X182533Y18499D01*
Y18441D01*
X182526Y18397D01*
Y18361D01*
Y18339D01*
Y18331D01*
Y18200D01*
X182540Y18076D01*
X182555Y17967D01*
X182577Y17858D01*
X182598Y17763D01*
X182627Y17675D01*
X182649Y17595D01*
X182679Y17522D01*
X182708Y17464D01*
X182737Y17406D01*
X182766Y17362D01*
X182788Y17325D01*
X182810Y17296D01*
X182824Y17275D01*
X182832Y17267D01*
X182839Y17260D01*
X182897Y17202D01*
X182963Y17143D01*
X183087Y17056D01*
X183218Y16997D01*
X183335Y16954D01*
X183444Y16932D01*
X183524Y16917D01*
X183561Y16910D01*
X183604D01*
X183692Y16917D01*
X183772Y16925D01*
X183925Y16961D01*
X184056Y17019D01*
X184166Y17085D01*
X184253Y17143D01*
X184319Y17202D01*
X184363Y17238D01*
X184370Y17253D01*
X184377D01*
X184428Y17325D01*
X184479Y17398D01*
X184552Y17566D01*
X184610Y17741D01*
X184647Y17916D01*
X184669Y18069D01*
X184676Y18135D01*
Y18193D01*
X184683Y18244D01*
Y18281D01*
Y18302D01*
Y18310D01*
X184676Y18434D01*
X184669Y18557D01*
X184654Y18667D01*
X184632Y18769D01*
X184610Y18864D01*
X184589Y18951D01*
X184559Y19024D01*
X184530Y19097D01*
X184501Y19155D01*
X184472Y19214D01*
X184450Y19257D01*
X184428Y19294D01*
X184406Y19323D01*
X184392Y19345D01*
X184377Y19352D01*
Y19359D01*
X184319Y19418D01*
X184253Y19476D01*
X184129Y19564D01*
X183998Y19622D01*
X183874Y19666D01*
X183765Y19695D01*
X183685Y19702D01*
X183648Y19709D01*
D02*
G37*
G36*
X173559D02*
X173522D01*
X173442Y19702D01*
X173369Y19695D01*
X173231Y19651D01*
X173107Y19600D01*
X173005Y19534D01*
X172924Y19469D01*
X172859Y19410D01*
X172822Y19367D01*
X172808Y19359D01*
Y19352D01*
X172757Y19279D01*
X172713Y19206D01*
X172640Y19031D01*
X172589Y18849D01*
X172553Y18674D01*
X172538Y18587D01*
X172531Y18507D01*
X172524Y18434D01*
Y18375D01*
X172516Y18324D01*
Y18288D01*
Y18259D01*
Y18251D01*
Y18127D01*
X172531Y18011D01*
X172546Y17909D01*
X172560Y17807D01*
X172582Y17719D01*
X172611Y17632D01*
X172633Y17559D01*
X172662Y17493D01*
X172691Y17435D01*
X172713Y17377D01*
X172742Y17340D01*
X172764Y17304D01*
X172779Y17275D01*
X172793Y17253D01*
X172808Y17245D01*
Y17238D01*
X172859Y17180D01*
X172917Y17129D01*
X173034Y17049D01*
X173151Y16990D01*
X173260Y16954D01*
X173355Y16925D01*
X173435Y16917D01*
X173464Y16910D01*
X173501D01*
X173573Y16917D01*
X173646Y16925D01*
X173777Y16961D01*
X173901Y17019D01*
X174004Y17085D01*
X174084Y17143D01*
X174149Y17202D01*
X174186Y17238D01*
X174193Y17253D01*
X174200D01*
X174251Y17325D01*
X174295Y17398D01*
X174368Y17566D01*
X174419Y17741D01*
X174455Y17909D01*
X174477Y18062D01*
X174485Y18127D01*
Y18186D01*
X174492Y18237D01*
Y18273D01*
Y18295D01*
Y18302D01*
Y18434D01*
X174477Y18557D01*
X174463Y18674D01*
X174448Y18776D01*
X174426Y18871D01*
X174404Y18959D01*
X174382Y19039D01*
X174353Y19112D01*
X174324Y19170D01*
X174302Y19221D01*
X174281Y19265D01*
X174259Y19301D01*
X174237Y19330D01*
X174229Y19352D01*
X174215Y19359D01*
Y19367D01*
X174164Y19425D01*
X174106Y19483D01*
X173989Y19564D01*
X173872Y19629D01*
X173763Y19666D01*
X173668Y19695D01*
X173588Y19702D01*
X173559Y19709D01*
D02*
G37*
G36*
X157003Y21036D02*
X156959D01*
X156879Y21029D01*
X156799Y21022D01*
X156726Y21000D01*
X156660Y20970D01*
X156537Y20905D01*
X156427Y20832D01*
X156347Y20752D01*
X156281Y20686D01*
X156260Y20657D01*
X156245Y20635D01*
X156230Y20628D01*
Y20621D01*
X156179Y20533D01*
X156136Y20431D01*
X156092Y20314D01*
X156063Y20190D01*
X156034Y20059D01*
X156012Y19921D01*
X155975Y19644D01*
X155961Y19505D01*
X155953Y19381D01*
X155946Y19265D01*
Y19170D01*
X155939Y19082D01*
Y19017D01*
Y18980D01*
Y18973D01*
Y18966D01*
Y18740D01*
X155953Y18536D01*
X155968Y18353D01*
X155983Y18178D01*
X156004Y18033D01*
X156034Y17894D01*
X156063Y17777D01*
X156085Y17668D01*
X156114Y17581D01*
X156143Y17508D01*
X156165Y17442D01*
X156194Y17391D01*
X156209Y17355D01*
X156223Y17333D01*
X156238Y17318D01*
Y17311D01*
X156296Y17238D01*
X156354Y17180D01*
X156413Y17121D01*
X156471Y17078D01*
X156595Y17005D01*
X156704Y16954D01*
X156806Y16925D01*
X156879Y16910D01*
X156908Y16903D01*
X156952D01*
X157032Y16910D01*
X157105Y16917D01*
X157244Y16968D01*
X157368Y17034D01*
X157477Y17107D01*
X157557Y17180D01*
X157623Y17245D01*
X157659Y17296D01*
X157674Y17304D01*
Y17311D01*
X157725Y17398D01*
X157769Y17501D01*
X157812Y17617D01*
X157842Y17741D01*
X157871Y17872D01*
X157893Y18011D01*
X157929Y18295D01*
X157944Y18426D01*
X157951Y18550D01*
X157958Y18667D01*
Y18762D01*
X157966Y18849D01*
Y18915D01*
Y18951D01*
Y18966D01*
X157958Y19192D01*
X157951Y19396D01*
X157936Y19585D01*
X157914Y19760D01*
X157893Y19914D01*
X157863Y20052D01*
X157834Y20176D01*
X157805Y20285D01*
X157776Y20380D01*
X157754Y20460D01*
X157725Y20526D01*
X157703Y20584D01*
X157681Y20621D01*
X157667Y20650D01*
X157652Y20664D01*
Y20672D01*
X157601Y20737D01*
X157550Y20796D01*
X157492Y20839D01*
X157433Y20883D01*
X157317Y20949D01*
X157207Y20992D01*
X157113Y21014D01*
X157032Y21029D01*
X157003Y21036D01*
D02*
G37*
G36*
X193752Y19731D02*
X193716D01*
X193643Y19724D01*
X193570Y19717D01*
X193439Y19680D01*
X193322Y19622D01*
X193220Y19556D01*
X193140Y19491D01*
X193081Y19440D01*
X193045Y19396D01*
X193030Y19389D01*
Y19381D01*
X192979Y19316D01*
X192936Y19236D01*
X192863Y19068D01*
X192812Y18900D01*
X192775Y18733D01*
X192753Y18579D01*
X192746Y18514D01*
Y18455D01*
X192739Y18404D01*
Y18368D01*
Y18346D01*
Y18339D01*
Y18208D01*
X192753Y18084D01*
X192768Y17967D01*
X192782Y17858D01*
X192804Y17763D01*
X192833Y17675D01*
X192863Y17588D01*
X192885Y17522D01*
X192914Y17457D01*
X192943Y17406D01*
X192965Y17355D01*
X192994Y17318D01*
X193008Y17289D01*
X193023Y17267D01*
X193038Y17260D01*
Y17253D01*
X193096Y17194D01*
X193154Y17143D01*
X193271Y17056D01*
X193388Y16997D01*
X193497Y16954D01*
X193599Y16932D01*
X193672Y16917D01*
X193701Y16910D01*
X193745D01*
X193818Y16917D01*
X193891Y16925D01*
X194022Y16961D01*
X194138Y17019D01*
X194240Y17078D01*
X194321Y17136D01*
X194379Y17194D01*
X194415Y17231D01*
X194430Y17245D01*
X194481Y17311D01*
X194525Y17384D01*
X194598Y17551D01*
X194641Y17719D01*
X194678Y17894D01*
X194700Y18047D01*
X194707Y18113D01*
Y18171D01*
X194714Y18222D01*
Y18259D01*
Y18281D01*
Y18288D01*
Y18419D01*
X194700Y18536D01*
X194685Y18645D01*
X194671Y18754D01*
X194641Y18849D01*
X194620Y18937D01*
X194590Y19017D01*
X194561Y19090D01*
X194539Y19148D01*
X194510Y19206D01*
X194481Y19250D01*
X194459Y19294D01*
X194445Y19323D01*
X194430Y19345D01*
X194415Y19352D01*
Y19359D01*
X194357Y19425D01*
X194299Y19483D01*
X194240Y19534D01*
X194175Y19578D01*
X194058Y19644D01*
X193949Y19688D01*
X193854Y19709D01*
X193781Y19724D01*
X193752Y19731D01*
D02*
G37*
G36*
X238053Y55374D02*
X235210Y55301D01*
X234846Y55083D01*
X234773D01*
X234700Y55010D01*
X234408Y54791D01*
X234190Y54427D01*
X234044Y54135D01*
Y53843D01*
Y53771D01*
Y53698D01*
X234117Y53333D01*
X234263Y52969D01*
X234627Y52604D01*
X234700Y52531D01*
X234773Y52458D01*
X234992Y52385D01*
X235356D01*
X235648Y52312D01*
X238053D01*
Y55374D01*
D02*
G37*
G36*
Y50854D02*
X235210Y50782D01*
X235137D01*
X235065Y50709D01*
X234773Y50636D01*
X234700D01*
X234627Y50563D01*
X234335Y50271D01*
X234044Y49834D01*
X233898Y49542D01*
Y49178D01*
Y49105D01*
Y49032D01*
X233971Y48667D01*
X234263Y48157D01*
X234481Y48011D01*
X234773Y47793D01*
X234846Y47720D01*
X235210D01*
X238053Y47574D01*
Y50854D01*
D02*
G37*
G36*
X226608Y54572D02*
X225733Y52167D01*
Y52094D01*
X225660Y52021D01*
X225588Y51583D01*
X225442Y51146D01*
X225296Y50636D01*
X225150Y49980D01*
X228139D01*
X226608Y54572D01*
D02*
G37*
G36*
X226316Y41669D02*
X226244D01*
X225442Y39482D01*
Y39409D01*
X225369Y39336D01*
X225296Y38899D01*
X225150Y38462D01*
X225004Y37951D01*
X224786Y37222D01*
X224858D01*
X224931Y37149D01*
X227702D01*
X227775Y37222D01*
X226389Y41523D01*
X226316Y41596D01*
Y41669D01*
D02*
G37*
G36*
X238053Y42617D02*
X235502D01*
X235283Y42544D01*
X234992D01*
X234846Y42471D01*
X234481Y42252D01*
X234263Y42034D01*
X234044Y41742D01*
X233971Y41450D01*
X233898Y41013D01*
Y40940D01*
Y40794D01*
X234044Y40357D01*
X234190Y40065D01*
X234408Y39847D01*
X234700Y39555D01*
X235065Y39409D01*
X235721D01*
X238053Y39336D01*
Y42617D01*
D02*
G37*
G36*
X218808Y29932D02*
X217933D01*
X217787Y29859D01*
X217714D01*
X217641Y29786D01*
X217568Y29641D01*
X217496Y29422D01*
Y29349D01*
X217568Y29203D01*
X217860Y28984D01*
X218006D01*
X218298Y28912D01*
X218808D01*
Y29932D01*
D02*
G37*
G36*
X212684Y29859D02*
X212028D01*
X211664Y29786D01*
X211591Y29713D01*
X211518Y29568D01*
X211445Y29276D01*
X211372Y28984D01*
Y28693D01*
Y28620D01*
Y28401D01*
Y28110D01*
X211445Y27891D01*
X211518Y27818D01*
X211664Y27672D01*
X212028Y27599D01*
X212393Y27527D01*
X212684D01*
Y29859D01*
D02*
G37*
G36*
X204738D02*
X204447D01*
X204082Y29713D01*
X204009Y29641D01*
X203936Y29422D01*
Y29349D01*
Y29276D01*
Y28984D01*
Y28693D01*
Y28620D01*
Y28401D01*
Y28183D01*
X204009Y27964D01*
Y27891D01*
X204082Y27818D01*
X204155Y27745D01*
X204374Y27599D01*
X204738D01*
X204957Y27818D01*
X205030Y27891D01*
X205103Y28037D01*
X205175Y28328D01*
X205248Y28766D01*
Y28839D01*
Y29130D01*
X205175Y29422D01*
X205030Y29713D01*
X204957Y29786D01*
X204738Y29859D01*
D02*
G37*
G36*
X201968Y29932D02*
X201239D01*
X200874Y29859D01*
X200801D01*
X200729Y29786D01*
X200656Y29641D01*
Y29495D01*
Y29422D01*
X200729Y29203D01*
X200947Y29057D01*
X201385Y28912D01*
X201968D01*
Y29932D01*
D02*
G37*
%LPD*%
D12*
X43874Y92539D02*
X44893Y92673D01*
X45842Y93067D01*
X46658Y93692D01*
X47284Y94508D01*
X47677Y95457D01*
X47811Y96476D01*
X43874Y76791D02*
X44871Y76817D01*
X45865Y76892D01*
X46855Y77018D01*
X47837Y77194D01*
X48808Y77420D01*
X49767Y77694D01*
X50711Y78017D01*
X51637Y78387D01*
X52543Y78803D01*
X53427Y79265D01*
X54287Y79771D01*
X55120Y80320D01*
X55923Y80910D01*
X56696Y81540D01*
X57436Y82209D01*
X58142Y82914D01*
X58810Y83654D01*
X59440Y84427D01*
X60031Y85231D01*
X60580Y86064D01*
X61086Y86923D01*
X61547Y87807D01*
X61964Y88714D01*
X62334Y89640D01*
X62656Y90583D01*
X62931Y91542D01*
X63156Y92514D01*
X63332Y93496D01*
X63458Y94485D01*
X63534Y95479D01*
X63559Y96476D01*
X47811D02*
Y141913D01*
X-4563Y92539D02*
X43874D01*
X-4563Y76791D02*
X43874D01*
X63559Y96476D02*
Y141913D01*
X65346Y128998D02*
Y125000D01*
Y126999D01*
X71345D01*
X66346Y119002D02*
X65346Y120001D01*
Y122001D01*
X66346Y123000D01*
X67346D01*
X68345Y122001D01*
Y120001D01*
X69345Y119002D01*
X70345D01*
X71345Y120001D01*
Y122001D01*
X70345Y123000D01*
X26531Y125383D02*
Y131381D01*
X23532D01*
X22533Y130381D01*
Y128382D01*
X23532Y127382D01*
X26531D01*
X24532D02*
X22533Y125383D01*
X20533D02*
X18534D01*
X19534D01*
Y131381D01*
X20533Y130381D01*
X15535D02*
X14535Y131381D01*
X12536D01*
X11536Y130381D01*
Y126383D01*
X12536Y125383D01*
X14535D01*
X15535Y126383D01*
Y130381D01*
X31000Y94501D02*
Y100499D01*
X28001D01*
X27001Y99499D01*
Y97500D01*
X28001Y96500D01*
X31000D01*
X29001D02*
X27001Y94501D01*
X25002D02*
X23003D01*
X24002D01*
Y100499D01*
X25002Y99499D01*
X16005Y94501D02*
X20004D01*
X16005Y98500D01*
Y99499D01*
X17005Y100499D01*
X19004D01*
X20004Y99499D01*
X10998Y100325D02*
Y94327D01*
X7000D01*
X5000Y100325D02*
Y96326D01*
X3001Y94327D01*
X1002Y96326D01*
Y100325D01*
X40026Y119498D02*
X46024D01*
Y115500D01*
X40026Y113500D02*
X44024D01*
X46024Y111501D01*
X44024Y109502D01*
X40026D01*
X48872Y75004D02*
X44874D01*
X46873D01*
Y69006D01*
X38876Y74004D02*
X39875Y75004D01*
X41875D01*
X42874Y74004D01*
Y73005D01*
X41875Y72005D01*
X39875D01*
X38876Y71005D01*
Y70006D01*
X39875Y69006D01*
X41875D01*
X42874Y70006D01*
X65346Y101475D02*
Y97476D01*
Y99475D01*
X71345D01*
X66346Y91478D02*
X65346Y92478D01*
Y94477D01*
X66346Y95477D01*
X67346D01*
X68345Y94477D01*
Y92478D01*
X69345Y91478D01*
X70345D01*
X71345Y92478D01*
Y94477D01*
X70345Y95477D01*
X10998Y75004D02*
X7000D01*
X8999D01*
Y69006D01*
X1002Y74004D02*
X2001Y75004D01*
X4001D01*
X5000Y74004D01*
Y73005D01*
X4001Y72005D01*
X2001D01*
X1002Y71005D01*
Y70006D01*
X2001Y69006D01*
X4001D01*
X5000Y70006D01*
X96100Y119200D02*
Y125198D01*
X93101D01*
X92101Y124198D01*
Y122199D01*
X93101Y121199D01*
X96100D01*
X94101D02*
X92101Y119200D01*
X90102Y120200D02*
X89102Y119200D01*
X87103D01*
X86103Y120200D01*
Y124198D01*
X87103Y125198D01*
X89102D01*
X90102Y124198D01*
Y123199D01*
X89102Y122199D01*
X86103D01*
X96100Y98800D02*
Y104798D01*
X93101D01*
X92101Y103798D01*
Y101799D01*
X93101Y100799D01*
X96100D01*
X94101D02*
X92101Y98800D01*
X90102Y104798D02*
X86103D01*
Y103798D01*
X90102Y99800D01*
Y98800D01*
X96100Y78500D02*
Y84498D01*
X93101D01*
X92101Y83498D01*
Y81499D01*
X93101Y80499D01*
X96100D01*
X94101D02*
X92101Y78500D01*
X86103Y84498D02*
X88103Y83498D01*
X90102Y81499D01*
Y79500D01*
X89102Y78500D01*
X87103D01*
X86103Y79500D01*
Y80499D01*
X87103Y81499D01*
X90102D01*
X98500Y52900D02*
Y58898D01*
X95501D01*
X94501Y57898D01*
Y55899D01*
X95501Y54899D01*
X98500D01*
X96501D02*
X94501Y52900D01*
X88503Y58898D02*
X92502D01*
Y55899D01*
X90503Y56899D01*
X89503D01*
X88503Y55899D01*
Y53900D01*
X89503Y52900D01*
X91502D01*
X92502Y53900D01*
X119200Y52900D02*
Y58898D01*
X116201D01*
X115201Y57898D01*
Y55899D01*
X116201Y54899D01*
X119200D01*
X117201D02*
X115201Y52900D01*
X110203D02*
Y58898D01*
X113202Y55899D01*
X109203D01*
X139500Y52900D02*
Y58898D01*
X136501D01*
X135501Y57898D01*
Y55899D01*
X136501Y54899D01*
X139500D01*
X137501D02*
X135501Y52900D01*
X133502Y57898D02*
X132502Y58898D01*
X130503D01*
X129503Y57898D01*
Y56899D01*
X130503Y55899D01*
X131503D01*
X130503D01*
X129503Y54899D01*
Y53900D01*
X130503Y52900D01*
X132502D01*
X133502Y53900D01*
X159800Y52900D02*
Y58898D01*
X156801D01*
X155801Y57898D01*
Y55899D01*
X156801Y54899D01*
X159800D01*
X157801D02*
X155801Y52900D01*
X149803D02*
X153802D01*
X149803Y56899D01*
Y57898D01*
X150803Y58898D01*
X152802D01*
X153802Y57898D01*
X185300Y78500D02*
Y84498D01*
X182301D01*
X181301Y83498D01*
Y81499D01*
X182301Y80499D01*
X185300D01*
X183301D02*
X181301Y78500D01*
X179302D02*
X177303D01*
X178302D01*
Y84498D01*
X179302Y83498D01*
D14*
X33831Y125626D02*
Y131138D01*
X27531Y125626D02*
Y126382D01*
Y125626D02*
X40130D01*
Y126382D01*
Y130382D02*
Y131138D01*
X27531D02*
X40130D01*
X27531Y130382D02*
Y131138D01*
X38425Y94721D02*
Y100232D01*
X44724Y99476D02*
Y100232D01*
X32126D02*
X44724D01*
X32126Y99476D02*
Y100232D01*
Y94721D02*
Y95476D01*
Y94721D02*
X44724D01*
Y95476D01*
X154754Y62228D02*
Y70890D01*
X145305Y69709D02*
Y70890D01*
X164203D01*
Y69709D02*
Y70890D01*
Y62228D02*
Y63410D01*
X145305Y62228D02*
X164203D01*
X145305D02*
Y63410D01*
X93462Y62228D02*
Y70890D01*
X84013Y69709D02*
Y70890D01*
X102910D01*
Y69709D02*
Y70890D01*
Y62228D02*
Y63410D01*
X84013Y62228D02*
X102910D01*
X84013D02*
Y63410D01*
X74169Y81523D02*
X82831D01*
X81650Y90971D02*
X82831D01*
Y72074D02*
Y90971D01*
X81650Y72074D02*
X82831D01*
X74169D02*
X75350D01*
X74169D02*
Y90971D01*
X75350D01*
X165385Y81523D02*
X174046D01*
X165385Y72074D02*
X166566D01*
X165385D02*
Y90971D01*
X166566D01*
X172865D02*
X174046D01*
Y72074D02*
Y90971D01*
X172865Y72074D02*
X174046D01*
X134477Y62228D02*
Y70890D01*
X125029Y69709D02*
Y70890D01*
X143926D01*
Y69709D02*
Y70890D01*
Y62228D02*
Y63410D01*
X125029Y62228D02*
X143926D01*
X125029D02*
Y63410D01*
X114201Y62228D02*
Y70890D01*
X104752Y69709D02*
Y70890D01*
X123650D01*
Y69709D02*
Y70890D01*
Y62228D02*
Y63410D01*
X104752Y62228D02*
X123650D01*
X104752D02*
Y63410D01*
X74169Y101799D02*
X82831D01*
X81650Y111248D02*
X82831D01*
Y92350D02*
Y111248D01*
X81650Y92350D02*
X82831D01*
X74169D02*
X75350D01*
X74169D02*
Y111248D01*
X75350D01*
X74169Y122181D02*
X82831D01*
X81650Y131630D02*
X82831D01*
Y112732D02*
Y131630D01*
X81650Y112732D02*
X82831D01*
X74169D02*
X75350D01*
X74169D02*
Y131630D01*
X75350D01*
M02*
