G04*
G04 #@! TF.GenerationSoftware,Altium Limited,Altium Designer,21.7.2 (23)*
G04*
G04 Layer_Color=16711935*
%FSLAX25Y25*%
%MOIN*%
G70*
G04*
G04 #@! TF.SameCoordinates,DA759B71-393A-44F5-82FF-BB875C5BA99D*
G04*
G04*
G04 #@! TF.FilePolarity,Negative*
G04*
G01*
G75*
%ADD23R,0.06000X0.06000*%
%ADD24C,0.06000*%
%ADD25C,0.04724*%
%ADD26C,0.07874*%
%ADD27C,0.02520*%
%ADD28C,0.05000*%
%ADD31R,0.03937X0.03543*%
%ADD32R,0.04528X0.06693*%
%ADD33R,0.06693X0.04528*%
D23*
X34882Y106571D02*
D03*
D24*
Y118382D02*
D03*
D25*
X159589Y117946D02*
D03*
Y98261D02*
D03*
D26*
X258926Y21093D02*
D03*
X50265D02*
D03*
X258926Y62827D02*
D03*
X50265D02*
D03*
D27*
X38743Y124000D02*
D03*
X40181Y105664D02*
D03*
X86000Y128382D02*
D03*
D28*
X233374Y118382D02*
D03*
D31*
X34882Y97476D02*
D03*
X41969D02*
D03*
X37374Y128382D02*
D03*
X30287D02*
D03*
D32*
X160955Y66559D02*
D03*
X148553D02*
D03*
X99662D02*
D03*
X87261D02*
D03*
X140678D02*
D03*
X128277D02*
D03*
X120402D02*
D03*
X108000D02*
D03*
D33*
X78500Y75322D02*
D03*
Y87723D02*
D03*
X169716D02*
D03*
Y75322D02*
D03*
X78500Y95598D02*
D03*
Y108000D02*
D03*
Y115980D02*
D03*
Y128382D02*
D03*
M02*
